<?xml version="1.0" encoding="UTF-8"?>
<!-- Generator: visioncortex VTracer 1.0.0-alpha.4 -->
<svg viewBox="0 0 1408 768" version="1.1" xmlns="http://www.w3.org/2000/svg" width="1408" height="768">
<path d="M1274,58c.33,0,.67,0,1,0c-.15,9.26,1.02,17.84,2,27c1,.33,2,.67,3,1c.06-4.54,1.22-24.09,0-27c-.2-.48-1.57-1.57-2-2c4.88-2.44,4.18-5.06,4-10c2.56-1.28,5.04-3,8-3c3.03-1.18,6.42-3.3,9.55-3.9c5.7-1.09,27.83-1.1,33.59-.03c2.48,.46,6.03,2.05,8.06,3.54c2.98,2.19,6.64,6.85,7.8,10.39c1.9,5.77,2.1,31.94,.95,38.26c-.46,2.54-1.99,5.12-3.32,7.3c-3,4.89-8.5,6.73-13.63,8.44c-8.54,2.77-27.35,1.05-37,1c0,.66-.21,2.47,0,3c1.76,4.41,12.8,2.95,16,1c-.33-.67-.67-1.33-1-2c1.76-1.76,5.63-1.04,8-1c-1.33,.67-2.67,1.33-4,2c0,.67,0,1.33,0,2c-2,.67-4,1.33-6,2c0,.33,0,.67,0,1c6.69-.1,15.96-1.34,22.38,.06c1.77,.39,3.01,1.37,4.62,1.94c4.52,1.6,8.14,3.79,11,8c3.65,5.38,4.44,34.81,3.05,41.51c-.36,1.72-4.85,10.03-6.07,11.12c-2.48,2.22-6.99,4.15-10.22,4.84c-5.44,1.14-33.69,1.89-38.16,0c-6.67-2.82-12.18-9.41-13.56-16.62c-1.76-9.18-.11-23.09-.04-32.85c-2.08,.55-3.84,1-6,1c-1.35,10.28-1.09,20.66-1,31c-.33,0-.67,0-1,0c-.66,5.79-4.13,11.67-9,15c-7.58,5.18-31.43,3.05-41,3c2.75,5.49,7.3-.76,9,8c8.74-.11,19.26-1.32,27.81-.06c1.73,.25,1.89,1.29,3.19,2.06c.91,.54,2.93,.79,4,1c.33-.67,.67-1.33,1-2c0,3,0,3-1,6c6.4,8.14,6.18,16.45,6.18,26.29c.01,9.04,1.82,20.27-3.83,27.98c-2.45,3.34-6.41,5.61-10.35,6.73c-5.35,1.52-34.22,2.45-39.05,.59c-1.63-.63-2.54-1.74-3.95-2.59c-.82-.49-2.23-.47-3-1c-1.78-1.24-3.36-4.36-5-6c-1.33-.67-2.67-1.33-4-2c.09-8.24,2.19-29.72-2-36c-2.84,4.34-.47,5.76-1.22,10.04c-.25,1.46-1.64,2.69-1.54,4.23c.13,1.94,1.24,3.84,1.43,5.87c.23,2.41-.44,4.51-.67,6.86c-.36,3.64-.01,13-6,13c-3.57,3.76-6.41,6.09-11.49,7.58c-4.99,1.48-31.68,1.3-36.83-.04c-3.52-.91-7.45-2.69-10.06-5.25c-2.27-2.22-4.61-6.2-5.37-9.3c-1.49-6.04-1.21-32.31,.61-38.14c1.32-4.26,4.02-7.73,7.14-10.85c.6-1.2,2.03-4.3,3-5c.66-.47,30.4-.14,33.49,.03c1.92,.11,8.07,1.48,9.51,.97c2.38-.85,3.61-5.9,6-7c.44-.2,2.41,0,3,0c-4.81-2.41-9.9-.01-14.87,.13c-5.32,.15-10.07-.78-15.28-1.07c-5.29-.3-10.7,.59-15.85-1.06c-7.98-2.66-9.17-4.17-15-10c-1.98-.99-4.79-4.72-5-7c-.17-1.82,1.06-4.85,1.1-6.96c.13-8.36-1.09-17.53,.14-25.76c.62-4.13,2.76-7,2.76-11.28c1.67-.33,3.33-.67,5-1c1.95-1.95,3.53-2.85,6-4c0-1.12,0-1.12,2-5c.33,.67,.67,1.33,1,2c4.67,0,9.33,0,14,0c1.94-.56,1.94-.56,4-1c4.15,1.04,7.71,1.07,12,1c-1.33-.33-2.67-.67-4-1c-.33-1.33-.67-2.67-1-4c-2.8,.11-6.09,.51-8.82-.17c-1.65-.41-3.08-1.56-4.74-1.77c-3.63-.46-6.84,.09-10.44-1.06c-5.76,0-10.31-6.31-14-10c-.85-.85-3.62-3.05-4-4c-.46-1.15-.43-32.13-.08-35.11c.24-2.08,1.85-4.4,1.91-6.11c.03-.91-1.01-3.21-.83-3.78c.67-2.14,5.34-2.74,7-3c7.96-6.49,18.04-6.28,27.75-6.2c4.66,.04,9.84-.52,14.43,.07c9.06,1.18,17.14,8.08,18.82,17.13c2.64,8.3,1.05,25.75,1,35c.67-1.33,1.33-2.67,2-4c1,.33,2,.67,3,1c.83-.83,.79-1,2-1c-.15-13.02-3.01-30.64,5.7-41.43c2.47-3.06,9.24-5.78,13.07-6.51c5.25-1.01,24.88-.97,30.25-.04c2,.35,3.23,1.44,4.98,1.98c1.49,.46,2.92,.22,4.4,1.01c4.57,2.44,8.9,9.97,9.6,14.99Zm-264,0c1.16-7.32,6.32-11.86,12.65-15.05c3.85-1.93,34.98-1.86,39.94-.8c2.63,.56,6.19,2.41,8.24,4.12c2.96,2.47,5.46,7.28,6.4,10.97c1.39,5.43,2.16,32.43,.5,37.41c-.61,1.85-1.79,2.79-2.73,4.35c-.5,.83-.48,2.2-1,3c-1.53,2.35-6.03,4.98-8.58,6.1c-8.19,3.59-19.56,2.18-28.39,2.17c-8.36-.01-15.61,.15-22.03-6.27c-2-1-2-1-5-3c-1.36,1.36-2.14,1-4,1c-.33-1-.67-2-1-3c-1.71,1.63-2.93,2.87-4,5c-5.95,0-4.05,4-10,4c-6.17,4.04-19.07,2.19-26.37,2.18c-9.34-.01-18.53,.6-25.82-6.42c-2.45-2.35-4.71-6.33-5.56-9.63c-1.22-4.73-1.08-31.46,.09-36.31c.67-2.73,4.43-9.73,6.63-11.31c1.96-1.41,5.54-3.77,7.85-4.4c6.71-1.81,19.36-.36,26.67-.31c10.16,.07,19.87,1.46,25.07,11.37c4.7,8.94,2.56,25.48,2.44,35.83c.33,0,.67,0,1,0c0,2,0,4,0,6c2.22,1.11,4.04,2.5,6,4c0-1.67,0-3.33,0-5c-1.67,0-3.33,0-5,0c2.03-2.03,2.12-2,5-2c-.06-9.52-1.77-25.23,1-34ZM998,256c-8.31,8.9-15.98,8.31-27.27,8.26c-10.58-.04-21.64,1.79-30.51-5.22c-3.25-2.56-5.96-7.96-6.97-11.93c-1.12-4.37-.48-9.98-.45-14.52c.07-9.97-1.55-26.03,8.2-32.59c.78-.53,2.18-.5,3-1c1.39-.84,2.25-2.02,3.86-2.64c4.74-1.81,12.98-.62,18.16-.6c13.21,.05,26.86-1.25,33.98,12.24c1,.33,2,.67,3,1c0,5.04-1.12,32.62,.38,35.17c1.27,2.17,2.41,1.83,4.62,1.83c2.69-8.61,1.06-23.65,1-33c.33,0,.67,0,1,0c.72-5.16,4.58-11.15,9-14c1.98-1.28,5.33-2.34,7.63-2.71c6.39-1.03,13.37-.49,19.84-.56c4.68-.04,10.28-.67,14.84,.2c1.47,.28,8.55,3.91,9.51,4.81c2.82,2.62,4.93,5.61,6.04,9.32c1.65,5.44,2.61,34.13,.8,39.04c-.61,1.65-1.79,2.5-2.66,3.9c-.71,1.14-.84,2.71-1.62,3.96c-2.2,3.48-8.45,5.91-12.34,6.64c-6.4,1.19-13.09,.56-19.57,.59c-4.58,.02-9.83,.56-14.33-.18c-2.14-.35-6.31-1.9-8.14-3.01c-2.34-1.43-4.99-4.99-7-7c-1.89-1.89-3.42-3.85-5-6c-3.19,1.59-6.2,8-9,8ZM497,663c-2.66,2.66-8.4,1.91-12.01,4.43c-6.97,4.88-13.7,14.94-15.89,23.1c-1.22,4.57-1.41,9.76-2.1,14.47c-1,.33-2,.67-3,1c.14,3.65,1.05,9.58,0,13c-1.35,4.42-5.89,4.41-9.18,6.23c-1.36,.76-2.48,2.06-3.82,2.77c-1.77,.93-4.29,1-6,2c-1.33,.78-2.55,2.42-4,3c-2.08,.83-6.5,.14-8.19-1.34c-4.62-4.06-.83-16.47-1.7-22.24c-.56-3.68-3.52-5.39-4.19-8.27c-.77-3.28,.68-6.36-.66-9.77c-3.43-8.77-8.75-19.9-17.37-24.75c-6.2-3.49-12.75-2.35-17.28-9.04c-1.11-1.65-.99-2.9-1.61-4.59c-.53-1.46-1.44-2.58-1.81-4.18c-1.73-7.29-.1-17.57-.13-25.21c-.01-3.09-.97-5.88-1.08-8.84c-.25-6.42,.45-12.71-.59-19.12c-1.21-7.47-3.02-5.71-7.06-10.73c-4.53-5.62-5.63-15.5-4.22-22.43c1.24-6.15,6.33-14.97,10.4-19.78c19.35-22.78,54.85-27.18,82.68-21.41c4.48,.92,9.61,1.88,13.81,3.7c1.32,.57,2.64,1.57,4,2c1.78,.57,3.54,.55,5.31,1.39c5.73,2.73,17,11.45,20.69,16.61c.83,1.17,1.23,2.78,2,4c.86,1.37,2.25,2.56,3,4c5.88,11.25,4.73,31.17-8,37c.05,4.25,.32,8.66-.01,12.89c-.17,2.1-.83,4.09-.97,6.18c-.18,2.57,.37,5.42-.02,7.93c-.33,2.1-.96,3.98-1.07,6.16c-.65,11.98,1.16,22.1-2.93,33.84c-1.95,2.47-3.79,6-7,6ZM0,768c469.33,0,938.67,0,1408,0c0-256,0-512,0-768C938.67,0,469.33,0,0,0C0,256,0,512,0,768ZM358,76c-3.71,.14-8.81,.82-12.35-.12c-2.08-.54-2.95-1.84-4.65-2.88c-.82-.5-2.21-.47-3-1c-5.17-3.44-9.04-16.47-6-22c1.01-1.84,3.48-3.58,5-5c4.87-4.55,9.86-8.09,17.05-6.05c2.16,.61,3.15,2.01,4.95,3.05c.83,.48,2.23,.47,3,1c6.24,4.29,7,16.3,7,23c7.33,0,14.67,0,22,0c.79,1.59,2.44,4.2,1.88,6.13C391.07,78.23,374.09,76.1,369,76c.19,3.61,1.04,9.13-.06,12.52c-.64,1.98-2.89,3.35-4.91,3.46c-7.72,.41-6.21-10.89-6.03-15.98Zm174,0c.25,4.83,2.41,15.11-4.56,15.79c-.82,.08-3.9-.25-4.44-.79c-1.55-1.54-1.02-12.47-1-15c-4.51,.11-17.28,1.4-20.94-.13c-2.1-.87-3.12-2.81-3.21-5c-.01-.48-.05-2.55,.15-2.87c2.23-3.43,20-2.07,24-2c-.2-7.73-1-15.11,4.65-21.35c1.04-1.15,2.72-1.02,3.68-1.98c5.43-5.43,11.3-4.63,17.67-1.67c1.66,.77,3.11,.96,4.68,2.1c6.04,4.39,8.87,15.25,5.45,22.04c-2.47,4.92-7.53,7.87-12.39,9.9c-4.09,1.71-9.41,1.1-13.74,.96Zm390,25c-3.27,3.63-6.53,6.2-11.11,8.03c-4.83,1.94-33.45,2.06-38.87,.72c-3.35-.83-7.51-3.08-9.77-5.7c-7.51-8.71-6.47-20.07-6.51-30.7c-.03-8.11-.69-16.99,4.87-23.67c7.82-9.41,15.49-8.11,26.56-8.02c9.93,.09,19.87-1.46,28.89,3.22c3.68,1.9,7.12,7.74,8.16,11.59c1.55,5.69,1.83,30.79,.67,36.76c-.52,2.69-2.02,5.15-2.89,7.77ZM236,48c0-.33,0-.66,0-1c10.18-.26,20.25-.61,25.42,10.08c5.44,11.26,1.15,24.17-1.01,35.79c-1.37,7.38-2.68,15.04-3.76,22.46c-2.09,14.42-4.77,28.73-6.86,43.13c-.76,5.2-1.66,17.06-3.89,21.34c-3.43,6.61-14.76,11.83-22,10.15c-2.23-.52-3.09-1.87-4.9-2.95c-.82-.49-2.23-.47-3-1c-1.6-1.1-3.17-4-4.62-5.49c-1.97-2.03-4.4-3.55-6.38-5.51c-3.22-3.19-6.05-7.48-9-11c-3.64,.65-5.42,2.45-8.42,4.25C178,174,167.71,181.81,159.6,189.52c-2.07,1.97-3.72,4.35-5.77,6.36c-2.18,2.15-4.81,3.93-6.82,6.22c-6.26,7.1-11.7,15.09-17.01,22.9c-2.94,4.32-6.03,9.18-8.69,13.66c-3.38,5.68-5.27,13.54-10.94,17.39c-4.7,3.19-13.88,5.29-19.37,2.95c-2.93-1.25-6.32-4.92-8.21-7.44c-5.91-7.88-3.52-16.51-2.06-25.36c.75-4.53,.95-8.48,3.02-12.69c.98-2,.7-5.26,1.25-7.51c.45-1.84,1.38-3.28,2-5c.52-1.46,.5-3.38,.91-4.93c.48-1.85,1.45-3.33,2.09-5.07c.65-1.78,.69-3.8,1.41-5.64c2.13-5.5,4.74-12,7.56-17.14c.78-1.43,2-2.59,2.8-4.03c1.18-2.1,1.55-4.57,2.77-6.71c5.44-9.51,12.02-18.57,18.62-27.35c5.96-7.96,12-15.93,19.84-22.13c-2.31-3.16-4.68-6.3-7.4-9.13c-7.32-7.62-16.3-13.32-16.74-25c-.05-1.22-.26-3.77,.14-4.87c.56-1.53,2.06-2.73,3-4c.52-.7,.57-2.21,1-3c1.1-2,6.46-4.6,8.6-5.39c4.84-1.79,9.16-1.25,14.15-1.67c8.58-.73,17.07-1.34,25.67-1.94c1.82-.13,3.56-.8,5.41-.96c2.58-.21,5.15,.16,7.71-.03c1.9-.13,3.62-.76,5.46-1.01c2.35-.32,4.91,.17,7.29,.04c2-.11,3.78-.8,5.71-1.04c2.59-.32,5.41,.3,8,0c1.33-.15,2.67-.84,4-1c2.26-.27,4.71,.17,7,0c5.07-.39,8.6-1.09,14-1ZM437,75c-5.2,1.17-22.72,2.77-27.48,1.03c-1.25-.45-2.3-1.74-2.88-2.87c-1.15-2.27-.57-5.56,1.84-6.79c2.82-1.43,22.97-.4,27.52-.37c1.95,3.48,2.08,5.13,1,9Zm46,0c-5.2,1.17-22.72,2.77-27.48,1.03c-1.25-.45-2.3-1.74-2.88-2.87c-1.15-2.27-.57-5.56,1.84-6.79c2.82-1.43,22.97-.4,27.52-.37c1.95,3.48,2.08,5.13,1,9ZM360,128c-.82-3.28-2.44-20.43-1-23c.73-1.31,4.14-2.19,5.56-1.87c1.62,.35,2.82,1.19,3.57,2.66c1.63,3.2,1.19,7.79,1.25,11.27c.1,7.42,.39,13.93-9.38,10.94Zm165-25c1.26,.1,3.97,.26,5,1c2.64,1.89,3.16,18.85,1.93,21.74c-.85,1.97-4.74,3.83-6.93,3.26c-4.62-1.21-3.92-18.66-2.92-22.11c.47-1.6,1.79-2.76,2.92-3.89Zm346,16c11.6-.11,24.23-1.19,35.72-.1c2.51,.24,4.07,1.04,6.28,2.1c.89,.43,2.18,.5,3,1c10.73,6.61,9.14,22.25,9.19,32.88c.04,7.84,1.01,16.09-3.19,23.12c-2.24,3.74-9.49,7.61-13.54,8.67c-4.7,1.22-33.95,1.46-37.9-.21c-1.47-.63-2.31-1.6-3.56-2.46c-1.17-.81-2.56-1.1-3.75-2.06c-2.92-2.36-5.18-7.63-6.47-11.09c-1.82-4.85-1.06-11.39-1.04-16.53c.05-14.29-1.33-28.95,15.26-34.32c0-.33,0-.66,0-1Zm123,4c2.89,3.24,5.89,7.45,7.19,11.63c1.72,5.5,2,30.34,.42,35.78c-1.5,5.18-5.11,10.44-9.61,13.59c-6.37,4.46-19.46,3.19-26.93,3.25c-4.93,.03-13.17,1.2-17.59-.77c-1.4-.62-2.24-1.72-3.48-2.48c-.82-.5-2.22-.47-3-1c-8.98-6.1-8.14-24.77-8.21-34.13c-.03-4.2-.49-9,.26-13.11c.41-2.23,1.67-4.69,2.7-6.7c2.27-4.45,7.98-7.68,12.28-9.78c2.15-1.05,33.76-1.03,37.37-.34c3.22,.61,5.45,3.01,8.6,4.06Zm30-4c10.3-.09,20.61-.08,30.91-.21c24.11-.29,23.29,18.91,23.35,36.73c.03,9.05,1,17.79-5.67,25.01c-2.35,2.54-6.31,4.86-9.63,5.8c-5.52,1.55-31.69,1.87-37.37,.72c-2.54-.51-3.54-1.8-5.59-3.05c-.81-.49-2.25-.46-3-1c-3.59-2.58-6.25-9.56-6.81-13.73c-.83-6.33-.39-13.07-.45-19.46c-.04-4.72-.64-10.21,.13-14.83c.45-2.74,1.8-3.78,3.13-5.98c.5-.82,.47-2.22,1-3c1.75-2.58,7.12-5.01,10-6c0-.33,0-.66,0-1ZM360,166c-.82-3.25-2.33-20.52-1-23c1.15-2.15,4.09-2.56,6.17-2.09c.86,.19,1.91,.82,2.46,1.52c2.69,3.34,3.08,21.22-.49,23.68c-1.94,1.34-5.11,.51-7.14-.11Zm163,0c-.82-3.25-2.33-20.52-1-23c1.13-2.1,4.03-2.45,6.08-2.06c1.02,.2,2.37,1.2,2.92,2.06c1.33,2.06,1.22,8.16,1.27,10.66c.16,7.41,1.36,15.59-9.27,12.34ZM360,204c-.58-3.56-2.43-20.33-1-23c1.45-2.71,5.53-2.11,8-2c2.15,4.29,4.42,20.59,.68,24.01c-1.72,1.57-5.57,1.13-7.68,.99Zm163-1c-.81-3.26-2.32-19.43-1-22c1.39-2.7,5.58-2.11,8-2c1.49,2.88,3.51,20.81,2,23c-1.54,2.24-6.89,1.59-9,1Zm774-8c2.38-2.38,12.69-1.18,16.24-1.19c9.67,0,20.39-1.91,28.52,4.42c3.8,2.95,6.06,6.9,7.38,11.46c1.67,5.76,2.05,31.46,.61,37.28c-.97,3.89-3.55,8.29-6.79,10.67c-7.14,5.22-16.47,4.54-24.86,4.54c-8.75,.01-19.28,1.49-27.1-3.18c-10.55-6.3-9.13-24.51-9.2-34.83c-.03-4.38-.6-9.64,.35-13.89c.45-2.03,1.65-4.36,2.6-6.22c2.31-4.51,7.65-7.48,12.25-9.06Zm-426,1c11.6-.11,24.23-1.19,35.72-.1c2.51,.24,4.07,1.04,6.28,2.1c.89,.42,2.19,.5,3,1c10.58,6.57,9.17,20.92,9.19,31.45c.02,10.44,1.69,21.23-7.29,28.61c-8.69,7.15-21.08,5.16-31.58,5.21c-9.27,.04-19.28,.83-25.28-7.91c-1.69-2.46-2.67-5.41-4.08-8.04c-2.09-3.88-1.24-11.16-1.23-15.52c.06-15-2.21-29.81,15.27-35.8c0-.33,0-.66,0-1ZM369,242c.13,4.68,.98,10.41-1.24,14.67c-4.22,8.09-10.25,12.27-19.63,12.17c-1.57-.02-4.78-.1-6.13-.84c-.66-.36-1.4-1.47-2-2c-1.99-1.75-4.13-2.96-5.73-5.18c-2.65-3.69-4.7-13.68-2.27-17.82c.92-1.57,3.13-3.35,4.51-4.57c2.4-2.11,3.71-3.8,6.88-4.96c4.95-1.8,10.43-1.51,15.61-1.47c-.07-3.02-1.21-13.84,1.42-15.41c1.77-1.07,4.6-.68,6.58-.59c2.46,5.3,2.18,10.32,2,16c4.58-.08,16.87-1.32,20.66,.08c2.36,.87,3.06,3.5,3.25,5.75c.14,1.59-1.36,3.51-2.91,4.17c-3.22,1.38-16.78,.11-21,0Zm163-10c5.82-.18,9.64-.55,15,2c6.8,3.24,10.71,6.17,11.93,14.18c3.29,21.61-27.55,29.15-35.6,8.95C521.51,252.54,522,246.87,522,242c-7.33,0-14.67,0-22,0c-2.09-4.18-2.17-4.8-1-9c7.64-1.27,15.29-1.08,23-1c-.07-3.15-1.25-13.81,1.42-15.41c1.77-1.07,4.6-.68,6.58-.59c2.46,5.3,2.18,10.32,2,16Zm-94,8c-1.67,1-3.44,1.7-5.36,2c-3.49,.55-20.6,1.07-23.43-.15c-1.98-.85-3.77-4.67-3.21-6.85c.35-1.36,2.93-2.81,4.21-3.11c4.01-.93,24.09-1.18,26.65,1.47c1.59,1.65,1.31,4.58,1.14,6.64Zm16,2c-1.14-2.48-2.67-5.31-1-8c.73-1.17,3.05-2.02,4.35-2.24c3.39-.59,21.04-.72,23.7,.42c1.66,.72,2.58,1.96,2.95,3.72c.15,.7,.34,3.56,0,4.1c-2.23,3.52-25.63,2.06-30,2ZM817,467c3.08-2.25,5.81-5.06,8.95-7.16c3.23-2.17,7.69-1.22,8.05,3.16c.04,.45-.77,1.92-1.01,2.36c-1.77,3.25-5.12,5.15-7.75,7.62c-2.9,2.71-5.5,5.9-7.86,9.08c-2.33,3.13-4.51,9.52-7.4,11.6c-2.43,1.75-4.38,1.27-6.98,.34c-.33-2.31-.66-4.62-1-7c-5.63,.16-12.78-3.17-17.83-1.91c-3.09,.77-5.04,3-7.63,4.66c-2.85,1.83-6.81,3.97-9.82,5.62c-1.88,1.03-3.71,1.12-5.72,1.63c-4.48,1.15-9.15,3.82-13.68,5.01c-7.43,1.95-16.45,3.42-24.09,4.33c-4.82,.57-10.09,.58-14.77,1.71c-6.07,1.46-1.75,8.18-8.85,8.71c-6.73,.51-6.43-6.34-11.34-7.76c-4.67-1.35-10.16,.15-14.99-.07c-5.89-.27-17.43-2.97-23.36-4.49c-5.87-1.51-10.72-4.66-15.92-7.44c-1.75-.94-4.34-.99-6-2c-1.71-1.04-1.58-2-3.9-2.5c-6.7-1.43-14.06-.26-20.89-.4c-8.89-.19-24.88-5.75-31.52-11.63c-10.47-9.26-13.02-19.82,1.31-26.47c-2.92-7.5-8.32-15.48-.37-21.91c2.81-2.26,5.83-3.23,9.41-3.21c3.2,.03,5.77,1.97,7.96,2.12c.24,.02,1.69-.85,2-1c-.06-5.64-.8-12.29,.23-17.79c.48-2.56,.96-5.73,1.83-8.15c.51-1.4,1.52-2.65,1.82-4.12c.33-1.58,0-3.23,.34-4.84c.73-3.43,2.97-8.12,4.32-11.48c1.6-3.97,3.36-8.26,5.26-12.07c1.05-2.09,2.73-3.53,3.46-5.86c1.67-5.29,1.32-10.24,1.89-15.6c.44-4.15,1.54-9.11,2.51-13.2c.52-2.18,1.59-3.85,2.34-5.89c1.61-4.39,2.61-9.03,4.5-13.43c.92-2.15,2.41-3.62,3.5-5.57c.49-.87,.54-2.1,1-3c.72-1.39,2.11-2.68,3-4c6.88-10.15,14.47-18.13,25.14-24.49c2.87-1.71,4.57-3.41,7.86-4.51c0-3.71-3.89-11.82-2-15c.55-.93,2.16-2.16,2.98-2.96c5.85-5.69,10.45-4.04,18.02-4.04c-.05-1.47-.74-6.82,0-8c.6-.95,2.12-2.12,2.96-2.95c4.68-4.64,8.73-6.14,15.27-2.98c10.13,4.9,13.29,8.1,19.66,17.34c1.45,2.1,1.88,6.55,3.68,7.79c1.94,1.34,5.73,1.05,8.1,1.54c2.01,.42,3.57,1.68,5.51,2.2c2.6,.7,5.28,.65,7.84,1.62c4.51,1.71,7.89,4.12,11.98,6.44c1.52,.86,3.3,1.17,4.83,2.14c1.51,.96,2.56,2.37,3.94,3.48c6.13,4.95,8.58,7.01,13.23,13.38c.8,1.1,2.08,1.99,3,3c3.22,3.56,6.32,8.95,8.5,13.23c4.01,7.89,7.01,15.91,9.46,24.36c.6,2.1,1.79,3.8,2.26,6.03c.74,3.57,1.8,7.24,2.42,10.78c.95,5.39-.29,6.12,2.36,11.6c.41,.85,.49,2.26,1,3c1.47,2.13,7.65,5.95,10.1,8.72c10.46,11.84,15.21,27.15,12.89,42.95c-.87,5.97-5.37,13.69-11,16.23c-2.65,1.19-6.67,.96-8.18,3.73c-1.19,2.19-1.14,5.47-1.66,7.87c-.58,2.68-2.07,6.8-3,9.47c-.72,2.05-2.09,3.24-3.15,5.03c-.92,1.55-1.33,3.51-2.26,5.13c-1.8,3.16-4.46,6.04-6.74,8.87c3.07,.91,5.8,1.09,9,1c1.15-6.52,3.65-13.45,6.79-19.28c.91-1.68,2.33-3.1,3.21-4.72c.46-.85,.48-2.22,1-3c1.43-2.15,4.7-2.64,7-3c4.28,6.54-.92,13.47-3,20Zm403-175c12.89-.07,26.93-1.42,39.47,1.76c2.02,.51,3.63,1.57,5.53,2.24c1.72,.61,3.46,.51,5.21,1.37c1.43,.7,2.47,1.88,3.79,2.63c.86,.49,2.16,.49,3,1c5.53,3.35,11.17,12.09,12.71,18.25c2.61,10.46,1.45,22.78,1.46,33.53c.01,19.32,.06,38.64,.06,57.96c0,6.95,1.41,25.66-.76,31.27c-.64,1.65-1.6,4.56-2.47,5.99c-1.08,1.77-3.5,3.4-4.9,5.08c-6.45,7.74-13.4,15.75-20.37,23.01c-1.88,1.97-4.2,3.48-6.04,5.43c-1.04,1.1-.97,2.33-1.69,3.48c-.54,.86-2.57,2.11-3.41,2.84c-2.22,1.9-2.87,4.44-4.59,6.16c-.5,.49-2.32,.58-3,1c-.73,.45-1.26,1.58-2,2c-1.71,.98-10.24,1.84-12,1c-3.82-1.82-9.4-10.19-12.61-13.44c-1.84-1.87-4.31-3.37-5.96-5.36c-1.31-1.59-1.12-2.94-2.89-4.41c-3.26-2.7-4.15-4.62-6.54-7.79c-1.03-1.36-3.24-2.6-4.52-3.86c-1.92-1.89-2.83-4.17-4.48-6.14c-1.07-1.28-2.94-2.39-4.2-3.55c-2.52-2.32-6.95-8.09-7.83-11.31c-.85-3.17-.34-7.43-.33-10.73c.03-6.7,.03-13.41,.04-20.11c.01-22.8,.08-45.59,.12-68.39c.02-9.1-1.51-20.89,2.61-29.19c3.31-6.66,7.74-9.68,13.59-13.72c1.45-1,2.37-2.07,4.08-2.76c1.97-.79,3.99-.65,5.92-1.24c1.23-.37,2.42-1.3,3.7-1.73c2.91-.97,6.26-1.02,9.3-1.27c0-.33,0-.66,0-1ZM141,295c0-.33,0-.66,0-1c18.38-.06,37.88-1.48,56,1c4.61,.63,9.84-.21,14.52-.04c1.99,.07,3.59,.78,5.48,1.04c2.83,.39,5.84-.17,8.75,.26c14.22,2.08,27.11,8.43,34.65,21.18c10.04,17,9.69,43.9,9.73,63.33c.02,8.33-.79,14.87-1.81,23.04c-1.83,14.6-4.07,27.23-15.57,37.37c-9.47,8.36-23.74,11.28-36.03,11.67c-4.75,.15-11.83-1.48-15.96,.89c-1.87,1.08-2.67,3.52-3.76,5.26c-2.91,4.61-16.24,21.71-20.08,24.52c-2.83,2.07-6.85,3.41-10.34,3.37c-1.24-.02-3.52-.24-4.58-.89c-6.21-3.82-16.86-19.47-22.13-25.79c-1.13-1.34-2.71-4-4.07-4.9c-3.72-2.44-6.96-.85-10.94-1.4c-14.29-1.95-25.3-.8-37.86-9.91c-2.07-1.5-4.14-2.24-5.92-4.23C68.88,426.13,68.31,408.2,67,391c-.14-1.79-.9-3.65-1.03-5.55c-.74-10.66-.38-21.94,1.03-32.45c.87-6.52,.23-14.17,2.05-20.55c1.53-5.31,3.32-8.77,5.95-13.45c.48-.86,.49-2.17,1-3c1.07-1.74,3.57-3.44,5-5c1.63-1.78,2.91-4.03,4.79-5.57c1-.81,2.12-.88,3.21-1.43c1.8-.91,3.22-2.48,5.21-3.37c9.72-4.35,20.63-4.07,30.97-4.62c1.92-.1,3.76-.81,5.7-.98c3.32-.3,6.78-.08,10.12-.03ZM916,572c-8.51-2.84-13.11-9.59-15-18c-.68-3.05-1.44-5.93,0-9c.68-1.45,2.24-2.61,3-4c.44-.82,.47-2.29,1-3c1.46-1.97,5.88-4.53,7.99-5.92c8.78-5.8,20.21-9.26,30.53-10.95c1.66-.27,3.38,.08,5.05-.18c2-.31,3.73-1.71,5.93-2.01c13.85-1.87,41.43,.91,54.63,5.96c1.92,.73,3.15,2.28,4.87,3.1c1.38,.66,3.69,.31,5,1c.7,.37,1.32,1.51,2,2c5.34,3.88,9.13,5.58,12.42,11.95c1.92,3.72,3.88,9.52,2.08,13.54c-.63,1.4-1.75,2.26-2.5,3.51c-.5,.84-.49,2.16-1,3c-.98,1.63-3.52,3.55-5.04,4.73c-1.52,1.18-6.37,3.6-6.96,5.27c-.48,1.35,1,7.02,1.32,8.66c1.71,8.76,3.21,17.54,4.68,26.34c.47,2.79,.91,10.11,2.31,12.01c.98,1.34,2.36,1.32,3.69,1.99c5.07,2.58,10.69,8.36,13.17,13.42c3.45,7.01,4.41,13.13-.17,19.58c-1.21,1.7-1.32,3.85-2.93,5.68c-8.61,9.78-22,14.26-34.07,17.32c-1.7,.43-3.22,1.69-5.12,2.1c-5.41,1.14-10.48,1.1-15.88,2.9c.19,6.86-1.88,16.96-3.94,23.59c-.54,1.71-1.55,3.13-2,4.94c-.57,2.32-.45,4.78-1.09,7.06c-.45,1.61-1.45,2.9-1.97,4.41c-.98,2.85-.1,5.67-2.69,7.98c-1.98,1.76-8.68,4.3-11.31,3.02c-.58-.28-1.64-1.71-2.09-2.25c-4.7-5.59-5.34-13.48-6.86-20.27c-.45-1.97-1.73-3.67-2.18-5.73c-1.75-7.88-2.29-16.01-4.87-23.75c-7.61,.17-13.96-1.55-21-4c-1.48-.51-3.38-.5-4.94-.9c-3.01-.78-6.62-2.36-9.5-3.6c-2.14-.92-3.62-2.37-5.56-3.5c-1.48-.86-3.58-1.08-5-2c-9-5.84-16.94-18.21-13.5-29.22c1.97-6.33,8.69-12.03,14.13-15.49c1.2-.76,4.8-2.08,5.37-3.29c.2-.42,.16-1.88,.18-2.43c.15-4.08,.78-7.5,1.39-11.56c1.71-11.36,4.23-22.72,6.43-34.01ZM61,712c5.05-7.13,12.3-12.72,17.69-19.52c2.06-2.59,.58-3.94,1.31-6.48c.43-1.51,2.7-3.49,3.54-4.88c3.17-5.22,5.6-10.82,6.76-16.83c.88-4.51,1.39-10.07,.77-14.63c-.31-2.27-1.29-3.62-2.07-5.66c-1.66-4.35-1.39-11.51,.99-15.52c2.84-4.78,6.57-7.55,11.01-10.48c1.69-1.12,3.15-3.29,4.75-4.63c4.73-4,9.68-7.73,14.34-11.8c2.24-1.95,4.42-4.71,6.84-6.32c.97-.63,2.12-.72,3.07-1.25c1.33-.74,2.83-2.91,4-4c4.73-4.4,10.09-8.42,15.06-12.56c16.73-13.93,33.28-27.54,50.07-41.36c8.42-6.93,14.31-15.18,26.21-14.38c2.92,.2,7.51,2.12,9.82,3.88c2.23,1.71,3.64,4.05,5.55,6.05c1.79,1.87,3.98,3.35,5.83,5.19c1.95,1.95,3.54,4.25,5.46,6.18c1.71,1.72,3.8,3.09,5.54,4.82c1.95,1.95,3.54,4.25,5.46,6.18c3.28,3.29,6.87,5.55,9.63,9.47c5.83,8.3,5.23,15.43,.53,24.01c-2.71,4.96-10.7,12.79-14.8,17.13c-1.44,1.52-1.43,2.69-2.36,4.39c-.56,1.01-2.18,2.11-3,3c-3.04,3.29-6.87,7.12-9.53,10.63c-.81,1.06-.87,2.28-1.47,3.37c-.55,1.01-2.18,2.12-3,3c-3.7,3.96-7.11,8.46-10.53,12.68c-11.36,13.99-22.62,28.1-34.16,41.94c-5.87,7.05-13.09,18.65-20.5,23.66c-1.68,1.13-3.5,2.01-5.39,2.69c-11.07,3.98-27.13-3.88-39.71-.89c-6.21,1.47-10.64,6.74-15.95,9.41c-2.15,1.08-4.91-.39-7.01,1.02c-4.82,3.23-5.36,8.18-12.17,9.29c-2.11,.35-4.31-.03-6.38-.48c-2.29-.49-4.09-1.4-6.2-2.32c-3.2-1.4-6.73-2.68-10-4c-5.66-2.28-10-2.54-10-10ZM1146,523c48.56-.11,97.12-.19,145.67-.23c5.44,0,13.32-1.05,18.38,.77c1.83,.65,4.58,1.87,6.11,3.04c2.33,1.78,3.74,4.26,5.79,6.29c3.74,3.69,7.35,7.42,11.05,11.13c4.7,4.71,9.24,7.45,11.99,13.91c4.14,9.73,2.17,32.46,2.18,43.74c.03,24.94,.05,49.88,.06,74.82c0,11.8,.64,23.95,.02,35.71c-.25,4.82-4,12.28-7.84,15.15c-10.13,7.6-26.96,4.95-39.09,4.94c-35.54,0-71.08,.01-106.62,0c-10.54-.01-21.07-.02-31.61-.01c-5.11,.01-12.1,.86-16.91-.82c-4.1-1.44-10.33-7.56-12.15-11.48c-3.19-6.88-2.17-16.22-2.18-23.67c0-37.3-.08-74.61-.08-111.92c0-10.24,0-20.47-.02-30.71c-.01-4.77-.74-10.96,.51-15.52c1.69-6.18,8.96-12.11,14.74-14.14c0-.33,0-.66,0-1Z" fill="#FDFDFD"/>
<path d="M358,76c-.18,5.09-1.69,16.39,6.03,15.98c2.02-.11,4.27-1.48,4.91-3.46c1.1-3.39,.25-8.91,.06-12.52c5.09,.1,22.07,2.23,23.88-3.87c.56-1.93-1.09-4.54-1.88-6.13c-7.33,0-14.67,0-22,0c0-6.7-.76-18.71-7-23c-.77-.53-2.17-.52-3-1c-1.8-1.04-2.79-2.44-4.95-3.05c-7.19-2.04-12.18,1.5-17.05,6.05c-1.52,1.42-3.99,3.16-5,5c-3.04,5.53,.83,18.56,6,22c.79,.53,2.18,.5,3,1c1.7,1.04,2.57,2.34,4.65,2.88c3.54,.94,8.64,.26,12.35,.12Zm1-10c-6.85,.49-13.78,2.04-17.08-5.51C336.96,49.16,355.8,43.05,359,57c.61,2.65,.1,6.28,0,9Z" fill="#33190F"/>
<path d="M532,76c4.33,.14,9.65,.75,13.74-.96c4.86-2.03,9.92-4.98,12.39-9.9c3.42-6.79,.59-17.65-5.45-22.04c-1.57-1.14-3.02-1.33-4.68-2.1c-6.37-2.96-12.24-3.76-17.67,1.67c-.96,.96-2.64,.83-3.68,1.98C521,50.89,521.8,58.27,522,66c-4-.07-21.77-1.43-24,2c-.2,.32-.16,2.39-.15,2.87c.09,2.19,1.11,4.13,3.21,5c3.66,1.53,16.43,.24,20.94,.13c-.02,2.53-.55,13.46,1,15c.54,.54,3.62,.87,4.44,.79c6.97-.68,4.81-10.96,4.56-15.79Zm0-10c-.09-3.26-.86-8.55,.11-11.58c.31-1,1.2-1.68,1.89-2.42c6.43-6.89,15.41-2.53,14.9,6.83c-.05,.88-.32,3.55-.9,4.17c-1.02,1.09-4.09,1.7-5.46,2.15c-3.39,1.13-7.01,.92-10.54,.85Z" fill="#32190E"/>
<path d="M1198,57c-1.68-9.05-9.76-15.95-18.82-17.13c-4.59-.59-9.77-.03-14.43-.07c-9.71-.08-19.79-.29-27.75,6.2c-7.26,9.24-6.14,19.49-6.19,30.53c-.03,4.69-.42,9.72,.09,14.37c.27,2.45,2.1,5,2.1,7.1c3.69,3.69,8.24,10,14,10c10.36,.06,29.55,1.8,38.79-1.37c3.26-1.11,5.91-3.09,8.21-5.63c1.38-2.07,2.95-4.07,3.64-6.5c1.14-4.05,.56-9.07,.54-13.27c-.05-8.08-.1-16.15-.18-24.23Zm-56,41c-1.82-2.04-3.01-4.43-3.59-7.1c-1.21-5.54-1.67-28.43-.32-33.67c.65-2.55,2.81-5.66,4.91-7.23c6.68-5.01,17.03-3.15,25.03-3.22c6.66-.05,13.92-1.05,19.1,4.1c5.37,5.34,5.23,14.36,5.1,21.35c-.15,8.32,1.53,17.66-3.7,24.8c-5.02,6.84-19.5,5.23-26.91,5.3c-3.85,.04-8.82,.55-12.52-.3c-2.78-.65-4.6-2.78-7.1-4.03Z" fill="#37160D"/>
<path d="M1274,58c-.7-5.02-5.03-12.55-9.6-14.99c-1.48-.79-2.91-.55-4.4-1.01c-1.75-.54-2.98-1.63-4.98-1.98c-5.37-.93-25-.97-30.25,.04c-3.83,.73-10.6,3.45-13.07,6.51c-8.71,10.79-5.85,28.41-5.7,41.43c.63,4.61,1.94,7.88,4,12c.33,0,.67,0,1,0c1.32,3.95,1.97,2.92,5,5c6.64,4.56,12.77,3.39,20.55,3.33c6.76-.05,16.6,1.22,22.93-.76c15.09-4.72,14.8-16.57,14.67-29.83c-.06-6.58-.08-13.16-.15-19.74Zm-57-7c2.13-1.17,5.24-3.63,7.43-4.09c4.96-1.04,26.24-.8,31.09,.37c3.08,.75,8.9,3.9,10.48,6.72c2.08,3.72,1.17,18.69,1.2,23.52c.04,6.7,1.48,14.62-3.64,19.81c-5.36,5.45-14.77,4.98-21.78,4.94c-5.92-.04-14.83,1.24-20.15-1.44c-1.95-.99-4.42-3-5.63-4.83c-3.49-5.29-4.49-30.26-3.1-36.62c.68-3.1,3.06-5.27,4.1-8.38Z" fill="#351C0D"/>
<path d="M1333,108c5.13-1.71,10.63-3.55,13.63-8.44c1.33-2.18,2.86-4.76,3.32-7.3c1.15-6.32,.95-32.49-.95-38.26c-1.16-3.54-4.82-8.2-7.8-10.39c-2.03-1.49-5.58-3.08-8.06-3.54c-5.76-1.07-27.89-1.06-33.59,.03c-3.13,.6-6.52,2.72-9.55,3.9c-2.9,3.5-5.21,7.38-6.52,11.75c-1.81,6.08-1.65,12.57-1.67,18.85c-.02,11.01-.92,25.71,10.9,31.6c7.4,3.69,31.04,1.85,40.29,1.8Zm-40.12-10.81c-1.86-2.16-3.01-4.75-3.62-7.52c-1.06-4.82-1.48-28.59,.07-32.81c1.08-2.96,4.93-6.64,7.57-8.25c5.51-3.37,16.26-1.85,22.67-1.88c6.99-.04,13.66-.82,19.06,4.58c5.23,5.25,4.69,12.89,4.69,19.69c0,5.88,1.56,17.22-1.25,22.29c-6.14,11.05-18.4,8.95-29.02,9.04c-4.19,.04-9.87,.74-13.83-.53c-2.47-.8-4.41-2.96-6.34-4.61Z" fill="#2D1D0F"/>
<path d="M922,101c.87-2.62,2.37-5.08,2.89-7.77c1.16-5.97,.88-31.07-.67-36.76c-1.04-3.85-4.48-9.69-8.16-11.59c-9.02-4.68-18.96-3.13-28.89-3.22c-11.07-.09-18.74-1.39-26.56,8.02c-5.56,6.68-4.9,15.56-4.87,23.67c.04,10.63-1,21.99,6.51,30.7c2.26,2.62,6.42,4.87,9.77,5.7c5.42,1.34,34.04,1.22,38.87-.72c4.58-1.83,7.84-4.4,11.11-8.03Zm-57-5c-2.46-5.95-3.8-30.2-1.85-36.24c1.07-3.29,5.79-9,8.9-10.49c3.35-1.61,17.94-.46,22.51-.49c5.23-.03,14.41-1.51,18.44,2.22c6.13,5.67,5.32,13.07,5.32,20.63c0,6.18,1.68,18.77-1.42,23.96c-1.71,2.86-4.36,5.33-7.48,6.51c-4.81,1.81-32.06,2.63-36.68,.82c-3.37-1.32-5.28-4.46-7.74-6.92Z" fill="#3A1810"/>
<path d="M1002,89c.12-10.35,2.26-26.89-2.44-35.83c-5.2-9.91-14.91-11.3-25.07-11.37c-7.31-.05-19.96-1.5-26.67,.31c-2.31,.63-5.89,2.99-7.85,4.4c-2.2,1.58-5.96,8.58-6.63,11.31c-1.17,4.85-1.31,31.58-.09,36.31c.85,3.3,3.11,7.28,5.56,9.63c7.29,7.02,16.48,6.41,25.82,6.42c7.3,.01,20.2,1.86,26.37-2.18c6.01-6.01,11.54-9.33,11-19Zm-10,9c-5.78,5.78-14.19,5.47-21.76,5.29c-6.15-.14-17.86,1.69-22.99-1.54c-9.62-6.06-7.44-19.22-7.5-28.94c-.02-3.95-.74-9.22,.28-13.02c.66-2.47,3.31-5.81,4.97-7.79c3.96-4.72,12.93-3.5,18.45-3.5c5.96,0,16.79-1.56,22.08,.72c2.31,.98,3.64,2.52,5.17,4.4c.67,.84,1.7,1.53,2.3,2.38c3.52,5.02,2.24,15.41,2.26,21.34c.01,4.19,.5,8.93-.33,13.01c-.54,2.63-2.07,5.07-2.93,7.65Z" fill="#371C0C"/>
<path d="M1015,104c6.42,6.42,13.67,6.26,22.03,6.27c8.83,.01,20.2,1.42,28.39-2.17c2.55-1.12,7.05-3.75,8.58-6.1c.52-.8,.5-2.17,1-3c.94-1.56,2.12-2.5,2.73-4.35c1.66-4.98,.89-31.98-.5-37.41c-.94-3.69-3.44-8.5-6.4-10.97c-2.05-1.71-5.61-3.56-8.24-4.12c-4.96-1.06-36.09-1.13-39.94,.8c-6.33,3.19-11.49,7.73-12.65,15.05c-.08,8.08-.13,16.15-.18,24.23c-.02,4.2-.6,9.21,.55,13.27c.84,2.95,3.03,5.88,4.63,8.5Zm3-8c-2.46-5.95-3.8-30.2-1.85-36.24c1.07-3.29,5.79-8.99,8.9-10.5c3.33-1.6,17.07-.5,21.52-.55c7.88-.09,15.07-1.54,21.06,4.67c4.54,4.71,3.66,13.06,3.64,19.07c-.02,7.19,1.65,18.48-2.48,24.6c-1.82,2.69-4.31,4.36-7.41,5.31c-5.06,1.56-31,2.38-35.64,.56c-3.37-1.32-5.28-4.46-7.74-6.92Z" fill="#2C1D0E"/>
<path d="M1290,44c-2.96,0-5.44,1.72-8,3c.18,4.94,.88,7.56-4,10c.43,.43,1.8,1.52,2,2c1.22,2.91,.06,22.46,0,27c-1-.33-2-.67-3-1c-.98-9.16-2.15-17.74-2-27c-.33,0-.67,0-1,0c.07,6.58,.09,13.16,.15,19.74c.13,13.26,.42,25.11-14.67,29.83c-6.33,1.98-16.17,.71-22.93,.76c-7.78,.06-13.91,1.23-20.55-3.33c-3.03-2.08-3.68-1.05-5-5c-.33,0-.67,0-1,0c-2.03-.68-4.26-2.51-6-3c-1.96-.55-8.13,3.06-10,4c-2.3,2.54-4.95,4.52-8.21,5.63c-9.24,3.17-28.43,1.43-38.79,1.37c3.6,1.15,6.81,.6,10.44,1.06c1.66,.21,3.09,1.36,4.74,1.77c2.73,.68,6.02,.28,8.82,.17c.33,1.33,.67,2.67,1,4c1.33,.33,2.67,.67,4,1c-4.29,.07-7.85,.04-12-1c-2.06,.44-2.06,.44-4,1c-4.67,0-9.33,0-14,0c-.33-.67-.67-1.33-1-2c-2,3.88-2,3.88-2,5c7.16-2.78,30.13-3.55,37.69-1.86c3.23,.73,8.36,3.15,10.86,5.32c2.93,2.55,5.29,6.55,6.52,10.23c1.79,5.34,2.13,31.96,.42,37.17c-1.81,5.51-5.29,9.91-10.39,12.73c-8.23,4.54-30.15,2.47-40.1,2.41c5.15,1.65,10.56,.76,15.85,1.06c5.21,.29,9.96,1.22,15.28,1.07c4.97-.14,10.06-2.54,14.87-.13c-.59,0-2.56-.2-3,0c-2.39,1.1-3.62,6.15-6,7c-1.44,.51-7.59-.86-9.51-.97c-3.09-.17-32.83-.5-33.49-.03c-.97,.7-2.4,3.8-3,5c2.99-1.16,6.36-3.26,9.45-3.88c4.46-.89,9.66-.39,14.23-.38c11.37,.04,26.83-1.37,33.3,10.55c3.49,6.43,2.2,16.34,2.21,23.5c0,9.78,1.31,17.21-3.19,26.21c5.99,0,5.64-9.36,6-13c.23-2.35,.9-4.45,.67-6.86c-.19-2.03-1.3-3.93-1.43-5.87c-.1-1.54,1.29-2.77,1.54-4.23c.75-4.28-1.62-5.7,1.22-10.04c4.19,6.28,2.09,27.76,2,36c1.33,.67,2.67,1.33,4,2c-.84-2.53-2.28-4.92-2.84-7.49c-1.04-4.73-.43-10.5-.42-15.36c.03-13.85-.5-27.87,14.48-34.35c5.32-2.3,14.58-.98,20.45-.99c9.7-.01,19.37-.3,27.33,6.19c1-3,1-3,1-6c-.33,.67-.67,1.33-1,2c-1.07-.21-3.09-.46-4-1c-1.3-.77-1.46-1.81-3.19-2.06c-8.55-1.26-19.07-.05-27.81,.06c-1.7-8.76-6.25-2.51-9-8c-5.68-1.22-11.02-3.85-14.28-8.86c-1.4-2.14-3.19-6.39-3.66-8.89c-1.17-6.13-1.04-28.84,.87-34.55c1.14-3.4,3.27-7.11,5.84-9.61c7.29-7.09,17.09-6.33,26.4-6.28c9.35,.05,24.72-.92,30.83,8.19c.53,.79,.5,2.18,1,3c1.19,1.94,2.46,2.93,2.99,5.31c.78,3.58,.31,7.87,.27,11.54c-.08,7.38-.15,14.77-.26,22.15c.33,0,.67,0,1,0c-.09-10.34-.35-20.72,1-31c2.16,0,3.92-.45,6-1c1.55-8.36,8.15-16.34,16.76-17.95c3.19-.59,6.98-.15,10.24-.05c0-.33,0-.67,0-1c2-.67,4-1.33,6-2c0-.67,0-1.33,0-2c1.33-.67,2.67-1.33,4-2c-2.37-.04-6.24-.76-8,1c.33,.67,.67,1.33,1,2c-3.2,1.95-14.24,3.41-16-1c-.21-.53,0-2.34,0-3c9.65,.05,28.46,1.77,37-1c-9.25,.05-32.89,1.89-40.29-1.8c-11.82-5.89-10.92-20.59-10.9-31.6c.02-6.28-.14-12.77,1.67-18.85c1.31-4.37,3.62-8.25,6.52-11.75Z" fill="#F8E89E"/>
<path d="M1217,51c-1.04,3.11-3.42,5.28-4.1,8.38c-1.39,6.36-.39,31.33,3.1,36.62c1.21,1.83,3.68,3.84,5.63,4.83c5.32,2.68,14.23,1.4,20.15,1.44c7.01,.04,16.42,.51,21.78-4.94c5.12-5.19,3.68-13.11,3.64-19.81c-.03-4.83,.88-19.8-1.2-23.52c-1.58-2.82-7.4-5.97-10.48-6.72c-4.85-1.17-26.13-1.41-31.09-.37c-2.19,.46-5.3,2.92-7.43,4.09Z" fill="#F8E89E"/>
<path d="M1191,135c-.74-2.77-1.29-5.92-3.75-7.75c-5.59-4.17-32.3-4.74-39.16-3.04c-2.27,.55-3.95,1.79-5.59,3.4c-2.27,2.21-3.51,5-4.18,8.07c-1.2,5.6-1.65,30.47,.54,35.15c1.74,3.74,5.39,5.92,9.14,7.17c0-.33,0-.67,0-1c6.09,.04,32.27,1.48,36-2c.42-.39,.63-1.5,1-2c1.79-2.46,4.53-4.89,5.64-7.82c1.98-5.22,.48-23.65,.36-30.18Z" fill="#F8E89E"/>
<path d="M1133,98c0-2.1-1.83-4.65-2.1-7.1c-.51-4.65-.12-9.68-.09-14.37c.05-11.04-1.07-21.29,6.19-30.53c-1.66,.26-6.33,.86-7,3c-.18,.57,.86,2.87,.83,3.78c-.06,1.71-1.67,4.03-1.91,6.11c-.35,2.98-.38,33.96,.08,35.11c.38,.95,3.15,3.15,4,4Z" fill="#E3DBD8"/>
<path d="M236,48c-5.4-.09-8.93,.61-14,1c-2.29,.17-4.74-.27-7,0c-1.33,.16-2.67,.85-4,1c-2.59,.3-5.41-.32-8,0c-1.93,.24-3.71,.93-5.71,1.04c-2.38,.13-4.94-.36-7.29-.04c-1.84,.25-3.56,.88-5.46,1.01c-2.56,.19-5.13-.18-7.71,.03c-1.85,.16-3.59,.83-5.41,.96c-8.6,.6-17.09,1.21-25.67,1.94c-4.99,.42-9.31-.12-14.15,1.67C129.46,57.4,124.1,60,123,62c-.43,.79-.48,2.3-1,3c-.94,1.27-2.44,2.47-3,4c-.4,1.1-.19,3.65-.14,4.87c.44,11.68,9.42,17.38,16.74,25c2.72,2.83,5.09,5.97,7.4,9.13c-7.84,6.2-13.88,14.17-19.84,22.13c-6.6,8.78-13.18,17.84-18.62,27.35c-1.22,2.14-1.59,4.61-2.77,6.71c-.8,1.44-2.02,2.6-2.8,4.03c-2.82,5.14-5.43,11.64-7.56,17.14c-.72,1.84-.76,3.86-1.41,5.64c-.64,1.74-1.61,3.22-2.09,5.07c-.41,1.55-.39,3.47-.91,4.93c-.62,1.72-1.55,3.16-2,5c-.55,2.25-.27,5.51-1.25,7.51c-2.07,4.21-2.27,8.16-3.02,12.69c-1.46,8.85-3.85,17.48,2.06,25.36c1.89,2.52,5.28,6.19,8.21,7.44c5.49,2.34,14.67,.24,19.37-2.95c5.67-3.85,7.56-11.71,10.94-17.39c2.66-4.48,5.75-9.34,8.69-13.66c5.31-7.81,10.75-15.8,17.01-22.9c2.01-2.29,4.64-4.07,6.82-6.22c2.05-2.01,3.7-4.39,5.77-6.36c8.11-7.71,18.4-15.52,27.98-21.27c3-1.8,4.78-3.6,8.42-4.25c2.95,3.52,5.78,7.81,9,11c1.98,1.96,4.41,3.48,6.38,5.51c1.45,1.49,3.02,4.39,4.62,5.49c.77,.53,2.18,.51,3,1c1.81,1.08,2.67,2.43,4.9,2.95c7.24,1.68,18.57-3.54,22-10.15c2.23-4.28,3.13-16.14,3.89-21.34c2.09-14.4,4.77-28.71,6.86-43.13c1.08-7.42,2.39-15.08,3.76-22.46c2.16-11.62,6.45-24.53,1.01-35.79C256.25,46.39,246.18,46.74,236,47c0,.34,0,.67,0,1Zm-1,10c0-.33,0-.66,0-1c3.66-.24,8.77-1.15,12.35,.01c12.05,3.9,4.67,26.86,3.4,35.73c-2.77,19.4-6.09,39.03-9.75,58.26c-1.27,6.66-1.2,20.26-5.26,25.11c-.67,.8-1.88,2.38-2.74,2.89c-1.99,1.18-8.04,1.28-10,0c-1.77-1.16-3.44-4.27-5-5.86c-1.86-1.89-4.14-3.3-6-5.14c-3.52-3.48-10.41-14.76-15-16c-3.38-.91-17.59,9.65-21,12c-14.22,9.78-28.81,22.19-39,36c-2.79,3.77-6.64,7.13-9.56,11c-6.45,8.54-12.27,18.7-17.44,28c-1.27,2.28-1.61,4.48-3.41,6.63c-1.8,2.16-3.34,3.45-6.12,4.01c-8.37,1.7-11.61-4.19-11.62-11.57c-.01-6.22,2.37-18.71,4.15-24.78c.46-1.56,1.51-2.89,1.94-4.47c.54-2.02,.58-4.16,1.12-6.2c.46-1.69,1.35-3.03,1.94-4.62c.55-1.47,.59-3.26,1.11-4.8c2.32-6.85,5.54-15.79,9.74-21.61c1.55-2.17,1.95-4.55,3.07-6.9c.84-1.76,2.13-3.06,3.08-4.69c.86-1.48,1.08-3.58,2-5c.48-.73,1.45-1.3,2-2c3.16-4.04,5.76-9.08,8.65-13.37c3.96-5.87,9.59-12.12,14.31-17.46c2.7-3.06,12.62-12.16,12.67-15.61c.04-3.08-4.03-5.16-5.86-6.98c-1.68-1.68-2.33-3.86-3.77-5.58c-1.24-1.48-3.36-2.7-4.82-4c-3.94-3.5-10.6-10.26-11.02-15.61c-.48-6.02,3.09-8.33,8.57-9.1c6.01-.84,12.22-.9,18.27-1.29c5.92-.38,12.82-1.71,18.78-2.03c2.97-.16,5.95,.25,8.9,.02c1.85-.15,3.53-.75,5.32-.99c2.24-.3,4.72,.17,7,0c1.55-.12,3.15-.81,4.79-.95c7.04-.58,14.16-.59,21.21-1.05c4.64-.3,7.94-1.1,13-1Z" fill="#36190A"/>
<path d="M1142,98c2.5,1.25,4.32,3.38,7.1,4.03c3.7,.85,8.67,.34,12.52,.3c7.41-.07,21.89,1.54,26.91-5.3c5.23-7.14,3.55-16.48,3.7-24.8c.13-6.99,.27-16.01-5.1-21.35c-5.18-5.15-12.44-4.15-19.1-4.1c-8,.07-18.35-1.79-25.03,3.22c-2.1,1.57-4.26,4.68-4.91,7.23c-1.35,5.24-.89,28.13,.32,33.67c.58,2.67,1.77,5.06,3.59,7.1Z" fill="#F99096"/>
<path d="M1292.88,97.19c1.93,1.65,3.87,3.81,6.34,4.61c3.96,1.27,9.64,.57,13.83,.53c10.62-.09,22.88,2.01,29.02-9.04c2.81-5.07,1.25-16.41,1.25-22.29c0-6.8,.54-14.44-4.69-19.69c-5.4-5.4-12.07-4.62-19.06-4.58c-6.41,.03-17.16-1.49-22.67,1.88c-2.64,1.61-6.49,5.29-7.57,8.25c-1.55,4.22-1.13,27.99-.07,32.81c.61,2.77,1.76,5.36,3.62,7.52Z" fill="#94E7AC"/>
<path d="M359,66c.1-2.72,.61-6.35,0-9c-3.2-13.95-22.04-7.84-17.08,3.49c3.3,7.55,10.23,6,17.08,5.51Z" fill="#F4F1EF"/>
<path d="M532,66c3.53,.07,7.15,.28,10.54-.85c1.37-.45,4.44-1.06,5.46-2.15c.58-.62,.85-3.29,.9-4.17c.51-9.36-8.47-13.72-14.9-6.83c-.69,.74-1.58,1.42-1.89,2.42c-.97,3.03-.2,8.32-.11,11.58Z" fill="#F7F5F3"/>
<path d="M865,96c2.46,2.46,4.37,5.6,7.74,6.92c4.62,1.81,31.87,.99,36.68-.82c3.12-1.18,5.77-3.65,7.48-6.51c3.1-5.19,1.42-17.78,1.42-23.96c0-7.56,.81-14.96-5.32-20.63c-4.03-3.73-13.21-2.25-18.44-2.22c-4.57,.03-19.16-1.12-22.51,.49c-3.11,1.49-7.83,7.2-8.9,10.49C861.2,65.8,862.54,90.05,865,96Z" fill="#FA9096"/>
<path d="M992,98c.86-2.58,2.39-5.02,2.93-7.65c.83-4.08,.34-8.82,.33-13.01c-.02-5.93,1.26-16.32-2.26-21.34c-.6-.85-1.63-1.54-2.3-2.38c-1.53-1.88-2.86-3.42-5.17-4.4c-5.29-2.28-16.12-.72-22.08-.72c-5.52,0-14.49-1.22-18.45,3.5c-1.66,1.98-4.31,5.32-4.97,7.79c-1.02,3.8-.3,9.07-.28,13.02c.06,9.72-2.12,22.88,7.5,28.94c5.13,3.23,16.84,1.4,22.99,1.54c7.57,.18,15.98,.49,21.76-5.29Z" fill="#FADE5B"/>
<path d="M1018,96c2.46,2.46,4.37,5.6,7.74,6.92c4.64,1.82,30.58,1,35.64-.56c3.1-.95,5.59-2.62,7.41-5.31c4.13-6.12,2.46-17.41,2.48-24.6c.02-6.01,.9-14.36-3.64-19.07c-5.99-6.21-13.18-4.76-21.06-4.67c-4.45,.05-18.19-1.05-21.52,.55c-3.11,1.51-7.83,7.21-8.9,10.5c-1.95,6.04-.61,30.29,1.85,36.24Z" fill="#94E8AC"/>
<path d="M235,58c-5.06-.1-8.36,.7-13,1c-7.05,.46-14.17,.47-21.21,1.05c-1.64,.14-3.24,.83-4.79,.95c-2.28,.17-4.76-.3-7,0c-1.79,.24-3.47,.84-5.32,.99c-2.95,.23-5.93-.18-8.9-.02c-5.96,.32-12.86,1.65-18.78,2.03c-6.05,.39-12.26,.45-18.27,1.29c-5.48,.77-9.05,3.08-8.57,9.1c.42,5.35,7.08,12.11,11.02,15.61c1.46,1.3,3.58,2.52,4.82,4c1.44,1.72,2.09,3.9,3.77,5.58c1.83,1.82,5.9,3.9,5.86,6.98c-.05,3.45-9.97,12.55-12.67,15.61c-4.72,5.34-10.35,11.59-14.31,17.46c-2.89,4.29-5.49,9.33-8.65,13.37c-.55,.7-1.52,1.27-2,2c-.92,1.42-1.14,3.52-2,5c-.95,1.63-2.24,2.93-3.08,4.69c-1.12,2.35-1.52,4.73-3.07,6.9c-4.2,5.82-7.42,14.76-9.74,21.61c-.52,1.54-.56,3.33-1.11,4.8c-.59,1.59-1.48,2.93-1.94,4.62c-.54,2.04-.58,4.18-1.12,6.2c-.43,1.58-1.48,2.91-1.94,4.47c-1.78,6.07-4.16,18.56-4.15,24.78c.01,7.38,3.25,13.27,11.62,11.57c2.78-.56,4.32-1.85,6.12-4.01c1.8-2.15,2.14-4.35,3.41-6.63c5.17-9.3,10.99-19.46,17.44-28c2.92-3.87,6.77-7.23,9.56-11c10.19-13.81,24.78-26.22,39-36c3.41-2.35,17.62-12.91,21-12c4.59,1.24,11.48,12.52,15,16c1.86,1.84,4.14,3.25,6,5.14c1.56,1.59,3.23,4.7,5,5.86c1.96,1.28,8.01,1.18,10,0c.86-.51,2.07-2.09,2.74-2.89c4.06-4.85,3.99-18.45,5.26-25.11c3.66-19.23,6.98-38.86,9.75-58.26c1.27-8.87,8.65-31.83-3.4-35.73c-3.58-1.16-8.69-.25-12.35-.01c0,.34,0,.67,0,1Z" fill="#F4C556"/>
<path d="M1206,88c-1.21,0-1.17,.17-2,1c-1-.33-2-.67-3-1c-.67,1.33-1.33,2.67-2,4c.05-9.25,1.64-26.7-1-35c.08,8.08,.13,16.15,.18,24.23c.02,4.2,.6,9.22-.54,13.27c-.69,2.43-2.26,4.43-3.64,6.5c1.87-.94,8.04-4.55,10-4c1.74,.49,3.97,2.32,6,3c-2.06-4.12-3.37-7.39-4-12Z" fill="#DAD4D2"/>
<path d="M1015,104c-1.6-2.62-3.79-5.55-4.63-8.5c-1.15-4.06-.57-9.07-.55-13.27c.05-8.08,.1-16.15,.18-24.23c-2.77,8.77-1.06,24.48-1,34c-2.88,0-2.97-.03-5,2c1.67,0,3.33,0,5,0c0,1.67,0,3.33,0,5c-1.96-1.5-3.78-2.89-6-4c0-2,0-4,0-6c-.33,0-.67,0-1,0c.54,9.67-4.99,12.99-11,19c5.95,0,4.05-4,10-4c1.07-2.13,2.29-3.37,4-5c.33,1,.67,2,1,3c1.86,0,2.64,.36,4-1c3,2,3,2,5,3Z" fill="#E1DAD8"/>
<path d="M437,75c1.08-3.87,.95-5.52-1-9c-4.55-.03-24.7-1.06-27.52,.37c-2.41,1.23-2.99,4.52-1.84,6.79c.58,1.13,1.63,2.42,2.88,2.87c4.76,1.74,22.28,.14,27.48-1.03Z" fill="#341C11"/>
<path d="M483,75c1.08-3.87,.95-5.52-1-9c-4.55-.03-24.7-1.06-27.52,.37c-2.41,1.23-2.99,4.52-1.84,6.79c.58,1.13,1.63,2.42,2.88,2.87c4.76,1.74,22.28,.14,27.48-1.03Z" fill="#341C12"/>
<path d="M360,128c9.77,2.99,9.48-3.52,9.38-10.94c-.06-3.48,.38-8.07-1.25-11.27c-.75-1.47-1.95-2.31-3.57-2.66c-1.42-.32-4.83,.56-5.56,1.87c-1.44,2.57,.18,19.72,1,23Z" fill="#301910"/>
<path d="M525,103c-1.13,1.13-2.45,2.29-2.92,3.89c-1,3.45-1.7,20.9,2.92,22.11c2.19,.57,6.08-1.29,6.93-3.26c1.23-2.89,.71-19.85-1.93-21.74c-1.03-.74-3.74-.9-5-1Z" fill="#30190F"/>
<path d="M1148,185c9.95,.06,31.87,2.13,40.1-2.41c5.1-2.82,8.58-7.22,10.39-12.73c1.71-5.21,1.37-31.83-.42-37.17c-1.23-3.68-3.59-7.68-6.52-10.23c-2.5-2.17-7.63-4.59-10.86-5.32c-7.56-1.69-30.53-.92-37.69,1.86c-2.47,1.15-4.05,2.05-6,4c-2.37,2.69-4.23,5.71-5.21,9.18c-1.93,6.85-1.69,27.96-.91,35.53c.25,2.52,2.12,5.16,2.12,7.29c5.83,5.83,7.02,7.34,15,10Zm0-7c-3.75-1.25-7.4-3.43-9.14-7.17c-2.19-4.68-1.74-29.55-.54-35.15c.67-3.07,1.91-5.86,4.18-8.07c1.64-1.61,3.32-2.85,5.59-3.4c6.86-1.7,33.57-1.13,39.16,3.04c2.46,1.83,3.01,4.98,3.75,7.75c1.73,5.72,2.14,24.2,.97,30.19c-.63,3.21-2.69,7.89-5.27,9.8c-6.78,5.02-15.77,4.17-23.74,4.14c-3.26-.01-12.84,.99-14.96-1.13Z" fill="#361C0E"/>
<path d="M1274,167c.11-7.38,.18-14.77,.26-22.15c.04-3.67,.51-7.96-.27-11.54c-.53-2.38-1.8-3.37-2.99-5.31c-.5-.82-.47-2.21-1-3c-6.11-9.11-21.48-8.14-30.83-8.19c-9.31-.05-19.11-.81-26.4,6.28c-2.57,2.5-4.7,6.21-5.84,9.61c-1.91,5.71-2.04,28.42-.87,34.55c.47,2.5,2.26,6.75,3.66,8.89c3.26,5.01,8.6,7.64,14.28,8.86c9.57,.05,33.42,2.18,41-3c4.87-3.33,8.34-9.21,9-15Zm-9-36c1.01,1.66,1.64,3.03,1.98,4.98c.94,5.48,1.3,27.23-.08,32.27c-.66,2.37-2.53,4.68-4.27,6.38c-2.14,2.08-5.61,3.33-8.48,3.93c-4.9,1.03-25.8,1.67-30.06,.2c-3.04-1.05-6.92-4.97-8.65-7.62c-3.65-5.56-2.71-13.18-2.7-19.54c.02-6.78-1.47-15.9,3.12-21.42c1.81-2.18,4.37-4.91,7.07-5.84c4.19-1.43,29.1-1.24,33.47,.03c3.89,1.12,7.29,2.7,8.6,6.63Z" fill="#2F1E10"/>
<path d="M1282,135c-.07,9.76-1.72,23.67,.04,32.85c1.38,7.21,6.89,13.8,13.56,16.62c4.47,1.89,32.72,1.14,38.16,0c3.23-.69,7.74-2.62,10.22-4.84c1.22-1.09,5.71-9.4,6.07-11.12c1.39-6.7,.6-36.13-3.05-41.51c-2.86-4.21-6.48-6.4-11-8c-1.61-.57-2.85-1.55-4.62-1.94c-6.42-1.4-15.69-.16-22.38-.06c-3.26-.1-7.05-.54-10.24,.05c-8.61,1.61-15.21,9.59-16.76,17.95Zm54,42c-6.23,3.19-13.51,2.3-20.26,2.32c-4.87,.01-10.87,.74-15.58-.28c-2.37-.51-3.75-1.8-5.51-3.35c-8.01-7.07-5.9-18.21-5.99-27.88c-.09-9.01-1.13-14.82,6.62-21.05c5.1-4.1,12.17-3.04,18.32-3.02c6.92,.02,16.7-1.51,22.59,2.62c2.88,2.02,4.99,4.72,6.09,8.07c1.75,5.38,2,29.44,.07,34.63c-1.22,3.29-3.78,5.67-6.35,7.94Z" fill="#2D1D0F"/>
<path d="M871,119c0,.34,0,.67,0,1c-16.59,5.37-15.21,20.03-15.26,34.32c-.02,5.14-.78,11.68,1.04,16.53c1.29,3.46,3.55,8.73,6.47,11.09c1.19,.96,2.58,1.25,3.75,2.06c1.25,.86,2.09,1.83,3.56,2.46c3.95,1.67,33.2,1.43,37.9,.21c4.05-1.06,11.3-4.93,13.54-8.67c4.2-7.03,3.23-15.28,3.19-23.12c-.05-10.63,1.54-26.27-9.19-32.88c-.82-.5-2.11-.57-3-1c-2.21-1.06-3.77-1.86-6.28-2.1c-11.49-1.09-24.12-.01-35.72,.1Zm43.25,57.13c-5.76,4.8-13.3,4.15-20.32,4.14c-3.95-.01-19.51,.9-22.08-.64c-10.94-6.57-9.08-19.29-9.18-30.07c-.04-3.94-.7-9.6,.64-13.24c1.31-3.59,5.05-7.28,8.01-9.6c2.69-2.11,12.67-.95,16.34-.96c6.02-.02,17.88-1.68,22.96,1.35c2.84,1.69,5.34,4.39,6.49,7.49c1.86,5.03,1.95,29.58,.67,34.97c-.59,2.5-1.92,4.59-3.53,6.56Z" fill="#361C0C"/>
<path d="M994,123c-3.15-1.05-5.38-3.45-8.6-4.06c-3.61-.69-35.22-.71-37.37,.34c-4.3,2.1-10.01,5.33-12.28,9.78c-1.03,2.01-2.29,4.47-2.7,6.7c-.75,4.11-.29,8.91-.26,13.11c.07,9.36-.77,28.03,8.21,34.13c.78,.53,2.18,.5,3,1c1.24,.76,2.08,1.86,3.48,2.48c4.42,1.97,12.66,.8,17.59,.77c7.47-.06,20.56,1.21,26.93-3.25c4.5-3.15,8.11-8.41,9.61-13.59c1.58-5.44,1.3-30.28-.42-35.78c-1.3-4.18-4.3-8.39-7.19-11.63Zm-6,55c-5.88,3.05-36.78,4.07-41.81,.06c-2.73-2.18-4.52-5.62-5.46-8.94c-1.4-5-2.32-28.75-.68-33.23c1.13-3.08,4.96-6.32,7.49-8.35c3.73-3,12.48-1.72,17.18-1.73c5.92-.01,19.77-1.74,24.28,2.19c2.51,2.19,4.61,6.14,5.44,9.34c1.53,5.83,1.93,26.82,.05,32.35c-1.17,3.47-3.81,5.94-6.49,8.31Z" fill="#3A180E"/>
<path d="M1024,119c0,.34,0,.67,0,1c-2.88,.99-8.25,3.42-10,6c-.53,.78-.5,2.18-1,3c-1.33,2.2-2.68,3.24-3.13,5.98c-.77,4.62-.17,10.11-.13,14.83c.06,6.39-.38,13.13,.45,19.46c.56,4.17,3.22,11.15,6.81,13.73c.75,.54,2.19,.51,3,1c2.05,1.25,3.05,2.54,5.59,3.05c5.68,1.15,31.85,.83,37.37-.72c3.32-.94,7.28-3.26,9.63-5.8c6.67-7.22,5.7-15.96,5.67-25.01c-.06-17.82,.76-37.02-23.35-36.73c-10.3,.13-20.61,.12-30.91,.21Zm-7,49c-1.58-5.5-2.62-26.76-.67-31.84c1.35-3.51,5.07-7.15,7.99-9.44c2-1.57,34.9-1.54,38.11-.21c4.14,1.71,7.34,5.92,8.3,10.21c1.28,5.82,1.77,32.37-1.38,36.69c-2.04,2.8-4.32,4.89-7.69,5.94c-4.09,1.28-33.26,1.96-36.52,.43c-4.23-1.99-7.68-7.26-8.14-11.78Z" fill="#39160D"/>
<path d="M1133,175c0-2.13-1.87-4.77-2.12-7.29c-.78-7.57-1.02-28.68,.91-35.53c.98-3.47,2.84-6.49,5.21-9.18c-1.67,.33-3.33,.67-5,1c0,4.28-2.14,7.15-2.76,11.28c-1.23,8.23-.01,17.4-.14,25.76c-.04,2.11-1.27,5.14-1.1,6.96c.21,2.28,3.02,6.01,5,7Z" fill="#E6DFDC"/>
<path d="M1265,131c-1.31-3.93-4.71-5.51-8.6-6.63c-4.37-1.27-29.28-1.46-33.47-.03c-2.7,.93-5.26,3.66-7.07,5.84c-4.59,5.52-3.1,14.64-3.12,21.42c-.01,6.36-.95,13.98,2.7,19.54c1.73,2.65,5.61,6.57,8.65,7.62c4.26,1.47,25.16,.83,30.06-.2c2.87-.6,6.34-1.85,8.48-3.93c1.74-1.7,3.61-4.01,4.27-6.38c1.38-5.04,1.02-26.79,.08-32.27c-.34-1.95-.97-3.32-1.98-4.98Z" fill="#93E6AB"/>
<path d="M1336,177c2.57-2.27,5.13-4.65,6.35-7.94c1.93-5.19,1.68-29.25-.07-34.63c-1.1-3.35-3.21-6.05-6.09-8.07c-5.89-4.13-15.67-2.6-22.59-2.62c-6.15-.02-13.22-1.08-18.32,3.02c-7.75,6.23-6.71,12.04-6.62,21.05c.09,9.67-2.02,20.81,5.99,27.88c1.76,1.55,3.14,2.84,5.51,3.35c4.71,1.02,10.71,.29,15.58,.28c6.75-.02,14.03,.87,20.26-2.32Z" fill="#93E6AC"/>
<path d="M914.25,176.13c1.61-1.97,2.94-4.06,3.53-6.56c1.28-5.39,1.19-29.94-.67-34.97c-1.15-3.1-3.65-5.8-6.49-7.49c-5.08-3.03-16.94-1.37-22.96-1.35c-3.67,.01-13.65-1.15-16.34,.96c-2.96,2.32-6.7,6.01-8.01,9.6c-1.34,3.64-.68,9.3-.64,13.24c.1,10.78-1.76,23.5,9.18,30.07c2.57,1.54,18.13,.63,22.08,.64c7.02,.01,14.56,.66,20.32-4.14Z" fill="#FADF5B"/>
<path d="M988,178c2.68-2.37,5.32-4.84,6.49-8.31c1.88-5.53,1.48-26.52-.05-32.35c-.83-3.2-2.93-7.15-5.44-9.34c-4.51-3.93-18.36-2.2-24.28-2.19c-4.7,.01-13.45-1.27-17.18,1.73c-2.53,2.03-6.36,5.27-7.49,8.35c-1.64,4.48-.72,28.23,.68,33.23c.94,3.32,2.73,6.76,5.46,8.94c5.03,4.01,35.93,2.99,41.81-.06Z" fill="#FB8F92"/>
<path d="M1017,168c.46,4.52,3.91,9.79,8.14,11.78c3.26,1.53,32.43,.85,36.52-.43c3.37-1.05,5.65-3.14,7.69-5.94c3.15-4.32,2.66-30.87,1.38-36.69c-.96-4.29-4.16-8.5-8.3-10.21c-3.21-1.33-36.11-1.36-38.11,.21c-2.92,2.29-6.64,5.93-7.99,9.44c-1.95,5.08-.91,26.34,.67,31.84Z" fill="#FB9095"/>
<path d="M1148,178c2.12,2.12,11.7,1.12,14.96,1.13c7.97,.03,16.96,.88,23.74-4.14c2.58-1.91,4.64-6.59,5.27-9.8c1.17-5.99,.76-24.47-.97-30.19c.12,6.53,1.62,24.96-.36,30.18c-1.11,2.93-3.85,5.36-5.64,7.82c-.37,.5-.58,1.61-1,2c-3.73,3.48-29.91,2.04-36,2c0,.33,0,.67,0,1Z" fill="#CCB364"/>
<path d="M360,166c2.03,.62,5.2,1.45,7.14,.11c3.57-2.46,3.18-20.34,.49-23.68c-.55-.7-1.6-1.33-2.46-1.52c-2.08-.47-5.02-.06-6.17,2.09c-1.33,2.48,.18,19.75,1,23Z" fill="#2F180F"/>
<path d="M523,166c10.63,3.25,9.43-4.93,9.27-12.34c-.05-2.5,.06-8.6-1.27-10.66c-.55-.86-1.9-1.86-2.92-2.06c-2.05-.39-4.95-.04-6.08,2.06c-1.33,2.48,.18,19.75,1,23Z" fill="#2F180F"/>
<path d="M360,204c2.11,.14,5.96,.58,7.68-.99c3.74-3.42,1.47-19.72-.68-24.01c-2.47-.11-6.55-.71-8,2c-1.43,2.67,.42,19.44,1,23Z" fill="#2F170E"/>
<path d="M523,203c2.11,.59,7.46,1.24,9-1c1.51-2.19-.51-20.12-2-23c-2.42-.11-6.61-.7-8,2c-1.32,2.57,.19,18.74,1,22Z" fill="#32190F"/>
<path d="M1195,254c4.5-9,3.19-16.43,3.19-26.21c-.01-7.16,1.28-17.07-2.21-23.5c-6.47-11.92-21.93-10.51-33.3-10.55c-4.57-.01-9.77-.51-14.23,.38c-3.09,.62-6.46,2.72-9.45,3.88c-3.12,3.12-5.82,6.59-7.14,10.85c-1.82,5.83-2.1,32.1-.61,38.14c.76,3.1,3.1,7.08,5.37,9.3c2.61,2.56,6.54,4.34,10.06,5.25c5.15,1.34,31.84,1.52,36.83,.04c5.08-1.49,7.92-3.82,11.49-7.58Zm-56-6c-1.21-6.24-2.58-31.85-.84-37.29c.95-2.98,4.58-7.42,7.37-8.79c5.35-2.62,14.88-1.23,20.84-1.24c7.4,0,15.51-1.16,21.26,4.57c1.93,1.93,3.3,4.94,3.92,7.57c1.26,5.29,1.58,25.86,.2,31.02c-.77,2.92-4.04,8.67-6.75,10.16c-3.16,1.73-34.54,2.25-38.12,.94c-3.31-1.21-5.46-4.52-7.88-6.94Z" fill="#39160E"/>
<path d="M1209,252c1.64,1.64,3.22,4.76,5,6c.77,.53,2.18,.51,3,1c1.41,.85,2.32,1.96,3.95,2.59c4.83,1.86,33.7,.93,39.05-.59c3.94-1.12,7.9-3.39,10.35-6.73c5.65-7.71,3.84-18.94,3.83-27.98c0-9.84,.22-18.15-6.18-26.29c-7.96-6.49-17.63-6.2-27.33-6.19c-5.87,.01-15.13-1.31-20.45,.99c-14.98,6.48-14.45,20.5-14.48,34.35c-.01,4.86-.62,10.63,.42,15.36c.56,2.57,2,4.96,2.84,7.49Zm6-4c-1.75-7.37-4.11-29.6-1.83-36.42c1.25-3.7,5.55-8.3,9.1-9.83c5.25-2.25,14.28-.99,20.05-1.01c6.9-.03,15.44-1.27,20.81,4.07c4.84,4.83,4.24,13.11,4.28,19.37c.04,6.05,1.81,18.48-1.21,23.56c-1.35,2.26-5.31,5.97-7.81,6.86c-4.35,1.55-31.38,1.94-35.59,.33c-3.43-1.31-5.3-4.43-7.8-6.93Z" fill="#381D0E"/>
<path d="M1297,195c-4.6,1.58-9.94,4.55-12.25,9.06c-.95,1.86-2.15,4.19-2.6,6.22c-.95,4.25-.38,9.51-.35,13.89c.07,10.32-1.35,28.53,9.2,34.83c7.82,4.67,18.35,3.19,27.1,3.18c8.39,0,17.72,.68,24.86-4.54c3.24-2.38,5.82-6.78,6.79-10.67c1.44-5.82,1.06-31.52-.61-37.28c-1.32-4.56-3.58-8.51-7.38-11.46c-8.13-6.33-18.85-4.42-28.52-4.42c-3.55,.01-13.86-1.19-16.24,1.19Zm-5,55c-1.38-2.35-2.23-4.95-2.7-7.63c-.91-5.2-1.6-26.15-.14-30.68c1.08-3.34,4.74-7.52,7.76-9.26c5.48-3.16,15.85-1.67,22.15-1.7c7.12-.03,14.06-.92,19.56,4.58c1.92,1.93,3.37,4.74,4,7.38c1.22,5.12,1.45,28.15-.1,32.94c-.87,2.7-3.17,5.79-5.53,7.37c-4.53,3.04-32.36,3.42-37.98,1.85c-2.86-.8-4.97-2.8-7.02-4.85Z" fill="#2E1F10"/>
<path d="M871,196c0,.34,0,.67,0,1c-17.48,5.99-15.21,20.8-15.27,35.8c-.01,4.36-.86,11.64,1.23,15.52c1.41,2.63,2.39,5.58,4.08,8.04c6,8.74,16.01,7.95,25.28,7.91c10.5-.05,22.89,1.94,31.58-5.21c8.98-7.38,7.31-18.17,7.29-28.61c-.02-10.53,1.39-24.88-9.19-31.45c-.81-.5-2.11-.58-3-1c-2.21-1.06-3.77-1.86-6.28-2.1c-11.49-1.09-24.12-.01-35.72,.1Zm-6,54c-2.46-5.95-3.8-30.2-1.85-36.24c1.07-3.29,5.79-8.99,8.9-10.5c3.31-1.59,17.06-.5,21.52-.55c7.88-.09,15.07-1.54,21.06,4.67c4.54,4.7,3.66,13.06,3.64,19.07c-.02,7.75,1.74,18.88-3.03,25.4c-1.82,2.49-4.75,3.9-7.69,4.65c-4.7,1.2-30.62,2.01-34.71,.47c-3.34-1.26-5.39-4.52-7.84-6.97Z" fill="#3B1910"/>
<path d="M1000,208c-7.12-13.49-20.77-12.19-33.98-12.24c-5.18-.02-13.42-1.21-18.16,.6c-1.61,.62-2.47,1.8-3.86,2.64c-.82,.5-2.22,.47-3,1c-9.75,6.56-8.13,22.62-8.2,32.59c-.03,4.54-.67,10.15,.45,14.52c1.01,3.97,3.72,9.37,6.97,11.93c8.87,7.01,19.93,5.18,30.51,5.22c11.29,.05,18.96,.64,27.27-8.26c1.32-2.64,3.17-5.44,3.82-8.32c1.65-7.32,.86-32.84-1.82-39.68Zm-12,47c-5.51,2.85-31.24,3.48-37.55,1.96c-2.17-.51-3.91-1.67-5.55-3.14c-7.09-6.36-5.11-18.85-5.27-27.44c-.08-3.91-.97-9.7,.33-13.32c1.12-3.14,5.01-6.45,7.58-8.52c3.73-3,12.48-1.72,17.18-1.73c5.92-.01,19.77-1.74,24.28,2.19c2.51,2.19,4.61,6.14,5.44,9.34c1.53,5.83,1.93,26.82,.05,32.35c-1.17,3.47-3.81,5.94-6.49,8.31Z" fill="#2E1F0F"/>
<path d="M1012,254c2.01,2.01,4.66,5.57,7,7c1.83,1.11,6,2.66,8.14,3.01c4.5,.74,9.75,.2,14.33,.18c6.48-.03,13.17,.6,19.57-.59c3.89-.73,10.14-3.16,12.34-6.64c.78-1.25,.91-2.82,1.62-3.96c.87-1.4,2.05-2.25,2.66-3.9c1.81-4.91,.85-33.6-.8-39.04c-1.11-3.71-3.22-6.7-6.04-9.32c-.96-.9-8.04-4.53-9.51-4.81c-4.56-.87-10.16-.24-14.84-.2c-6.47,.07-13.45-.47-19.84,.56c-2.3,.37-5.65,1.43-7.63,2.71c-4.42,2.85-8.28,8.84-9,14c-.11,10.86-.83,22.19-.16,33c.18,2.83,2.16,5.68,2.16,8Zm54.56-47.69c1.99,2.33,3.53,4.9,4.24,7.89c1.16,4.9,1.44,28.82-.01,33.4c-.69,2.2-2.52,4.43-4.16,6.03c-1.75,1.69-4.45,2.73-6.8,3.19c-5.45,1.06-28.01,1.48-33.09,.07c-2.54-.7-5.12-2.89-6.93-4.76c-3.76-3.9-4.14-13.52-4.12-18.71c.02-6.2-1.55-17.12,1.64-22.28c1.86-3.01,5.38-6.54,8.74-7.69c4.48-1.54,29.13-1.34,34.18-.32c2.4,.49,4.45,1.62,6.31,3.18Z" fill="#2D1D0E"/>
<path d="M1139,248c2.42,2.42,4.57,5.73,7.88,6.94c3.58,1.31,34.96,.79,38.12-.94c2.71-1.49,5.98-7.24,6.75-10.16c1.38-5.16,1.06-25.73-.2-31.02c-.62-2.63-1.99-5.64-3.92-7.57c-5.75-5.73-13.86-4.57-21.26-4.57c-5.96,.01-15.49-1.38-20.84,1.24c-2.79,1.37-6.42,5.81-7.37,8.79c-1.74,5.44-.37,31.05,.84,37.29Z" fill="#FA9095"/>
<path d="M1215,248c2.5,2.5,4.37,5.62,7.8,6.93c4.21,1.61,31.24,1.22,35.59-.33c2.5-.89,6.46-4.6,7.81-6.86c3.02-5.08,1.25-17.51,1.21-23.56c-.04-6.26,.56-14.54-4.28-19.37c-5.37-5.34-13.91-4.1-20.81-4.07c-5.77,.02-14.8-1.24-20.05,1.01c-3.55,1.53-7.85,6.13-9.1,9.83c-2.28,6.82,.08,29.05,1.83,36.42Z" fill="#F9DE5C"/>
<path d="M1292,250c2.05,2.05,4.16,4.05,7.02,4.85c5.62,1.57,33.45,1.19,37.98-1.85c2.36-1.58,4.66-4.67,5.53-7.37c1.55-4.79,1.32-27.82,.1-32.94c-.63-2.64-2.08-5.45-4-7.38c-5.5-5.5-12.44-4.61-19.56-4.58c-6.3,.03-16.67-1.46-22.15,1.7c-3.02,1.74-6.68,5.92-7.76,9.26c-1.46,4.53-.77,25.48,.14,30.68c.47,2.68,1.32,5.28,2.7,7.63Z" fill="#95E8AD"/>
<path d="M865,250c2.45,2.45,4.5,5.71,7.84,6.97c4.09,1.54,30.01,.73,34.71-.47c2.94-.75,5.87-2.16,7.69-4.65c4.77-6.52,3.01-17.65,3.03-25.4c.02-6.01,.9-14.37-3.64-19.07c-5.99-6.21-13.18-4.76-21.06-4.67c-4.46,.05-18.21-1.04-21.52,.55c-3.11,1.51-7.83,7.21-8.9,10.5c-1.95,6.04-.61,30.29,1.85,36.24Z" fill="#FB9095"/>
<path d="M988,255c2.68-2.37,5.32-4.84,6.49-8.31c1.88-5.53,1.48-26.52-.05-32.35c-.83-3.2-2.93-7.15-5.44-9.34c-4.51-3.93-18.36-2.2-24.28-2.19c-4.7,.01-13.45-1.27-17.18,1.73c-2.57,2.07-6.46,5.38-7.58,8.52c-1.3,3.62-.41,9.41-.33,13.32c.16,8.59-1.82,21.08,5.27,27.44c1.64,1.47,3.38,2.63,5.55,3.14c6.31,1.52,32.04,.89,37.55-1.96Z" fill="#95E7AE"/>
<path d="M1066.56,206.31c-1.86-1.56-3.91-2.69-6.31-3.18c-5.05-1.02-29.7-1.22-34.18,.32c-3.36,1.15-6.88,4.68-8.74,7.69c-3.19,5.16-1.62,16.08-1.64,22.28c-.02,5.19,.36,14.81,4.12,18.71c1.81,1.87,4.39,4.06,6.93,4.76c5.08,1.41,27.64,.99,33.09-.07c2.35-.46,5.05-1.5,6.8-3.19c1.64-1.6,3.47-3.83,4.16-6.03c1.45-4.58,1.17-28.5,.01-33.4c-.71-2.99-2.25-5.56-4.24-7.89Z" fill="#94E7AE"/>
<path d="M1010,213c-.33,0-.67,0-1,0c.06,9.35,1.69,24.39-1,33c-2.21,0-3.35,.34-4.62-1.83c-1.5-2.55-.38-30.13-.38-35.17c-1-.33-2-.67-3-1c2.68,6.84,3.47,32.36,1.82,39.68c-.65,2.88-2.5,5.68-3.82,8.32c2.8,0,5.81-6.41,9-8c1.58,2.15,3.11,4.11,5,6c0-2.32-1.98-5.17-2.16-8c-.67-10.81,.05-22.14,.16-33Z" fill="#E3DDDA"/>
<path d="M369,242c4.22,.11,17.78,1.38,21,0c1.55-.66,3.05-2.58,2.91-4.17c-.19-2.25-.89-4.88-3.25-5.75c-3.79-1.4-16.08-.16-20.66-.08c.18-5.68,.46-10.7-2-16c-1.98-.09-4.81-.48-6.58,.59c-2.63,1.57-1.49,12.39-1.42,15.41c-5.18-.04-10.66-.33-15.61,1.47c-3.17,1.16-4.48,2.85-6.88,4.96c-1.38,1.22-3.59,3-4.51,4.57c-2.43,4.14-.38,14.13,2.27,17.82c1.6,2.22,3.74,3.43,5.73,5.18c.6,.53,1.34,1.64,2,2c1.35,.74,4.56,.82,6.13,.84c9.38,.1,15.41-4.08,19.63-12.17c2.22-4.26,1.37-9.99,1.24-14.67Zm-10,0c.16,3.02,.77,6.99-.26,9.84c-1.77,4.88-8.69,9.63-13.74,6.16c-6.83-4.69-4.07-14.71,3.85-15.98c3.25-.52,6.88-.16,10.15-.02Z" fill="#31180E"/>
<path d="M532,232c.18-5.68,.46-10.7-2-16c-1.98-.09-4.81-.48-6.58,.59c-2.67,1.6-1.49,12.26-1.42,15.41c-7.71-.08-15.36-.27-23,1c-1.17,4.2-1.09,4.82,1,9c7.33,0,14.67,0,22,0c0,4.87-.49,10.54,1.33,15.13c8.05,20.2,38.89,12.66,35.6-8.95c-1.22-8.01-5.13-10.94-11.93-14.18c-5.36-2.55-9.18-2.18-15-2Zm0,10c3.29-.09,8.12-.78,11.23,.15c4.75,1.42,7.7,9.71,4.77,13.85c-.59,.84-2.59,1.87-3.55,2.29c-5.82,2.55-10.46,.4-11.99-5.79c-.85-3.42-.52-7.02-.46-10.5Z" fill="#32190E"/>
<path d="M438,240c.17-2.06,.45-4.99-1.14-6.64c-2.56-2.65-22.64-2.4-26.65-1.47c-1.28,.3-3.86,1.75-4.21,3.11c-.56,2.18,1.23,6,3.21,6.85c2.83,1.22,19.94,.7,23.43,.15c1.92-.3,3.69-1,5.36-2Z" fill="#341B10"/>
<path d="M454,242c4.37,.06,27.77,1.52,30-2c.34-.54,.15-3.4,0-4.1c-.37-1.76-1.29-3-2.95-3.72c-2.66-1.14-20.31-1.01-23.7-.42c-1.3,.22-3.62,1.07-4.35,2.24c-1.67,2.69-.14,5.52,1,8Z" fill="#341B11"/>
<path d="M817,467c2.08-6.53,7.28-13.46,3-20c-2.3,.36-5.57,.85-7,3c-.52,.78-.54,2.15-1,3c-.88,1.62-2.3,3.04-3.21,4.72c-3.14,5.83-5.64,12.76-6.79,19.28c-3.2,.09-5.93-.09-9-1c2.28-2.83,4.94-5.71,6.74-8.87c.93-1.62,1.34-3.58,2.26-5.13c1.06-1.79,2.43-2.98,3.15-5.03c.93-2.67,2.42-6.79,3-9.47c.52-2.4,.47-5.68,1.66-7.87c1.51-2.77,5.53-2.54,8.18-3.73c5.63-2.54,10.13-10.26,11-16.23c2.32-15.8-2.43-31.11-12.89-42.95c-2.45-2.77-8.63-6.59-10.1-8.72c-.51-.74-.59-2.15-1-3c-2.65-5.48-1.41-6.21-2.36-11.6c-.62-3.54-1.68-7.21-2.42-10.78c-.47-2.23-1.66-3.93-2.26-6.03c-2.45-8.45-5.45-16.47-9.46-24.36c-2.18-4.28-5.28-9.67-8.5-13.23c-.92-1.01-2.2-1.9-3-3c-4.65-6.37-7.1-8.43-13.23-13.38c-1.38-1.11-2.43-2.52-3.94-3.48c-1.53-.97-3.31-1.28-4.83-2.14c-4.09-2.32-7.47-4.73-11.98-6.44c-2.56-.97-5.24-.92-7.84-1.62c-1.94-.52-3.5-1.78-5.51-2.2c-2.37-.49-6.16-.2-8.1-1.54c-1.8-1.24-2.23-5.69-3.68-7.79c-6.37-9.24-9.53-12.44-19.66-17.34c-6.54-3.16-10.59-1.66-15.27,2.98c-.84,.83-2.36,2-2.96,2.95c-.74,1.18-.05,6.53,0,8c-7.57,0-12.17-1.65-18.02,4.04c-.82,.8-2.43,2.03-2.98,2.96c-1.89,3.18,2,11.29,2,15c-3.29,1.1-4.99,2.8-7.86,4.51C642.47,286.87,634.88,294.85,628,305c-.89,1.32-2.28,2.61-3,4c-.46,.9-.51,2.13-1,3c-1.09,1.95-2.58,3.42-3.5,5.57c-1.89,4.4-2.89,9.04-4.5,13.43c-.75,2.04-1.82,3.71-2.34,5.89c-.97,4.09-2.07,9.05-2.51,13.2c-.57,5.36-.22,10.31-1.89,15.6c-.73,2.33-2.41,3.77-3.46,5.86c-1.9,3.81-3.66,8.1-5.26,12.07c-1.35,3.36-3.59,8.05-4.32,11.48c-.34,1.61-.01,3.26-.34,4.84c-.3,1.47-1.31,2.72-1.82,4.12c-.87,2.42-1.35,5.59-1.83,8.15c-1.03,5.5-.29,12.15-.23,17.79c-.31,.15-1.76,1.02-2,1c-2.19-.15-4.76-2.09-7.96-2.12c-3.58-.02-6.6,.95-9.41,3.21c-7.95,6.43-2.55,14.41,.37,21.91c-14.33,6.65-11.78,17.21-1.31,26.47c6.64,5.88,22.63,11.44,31.52,11.63c6.83,.14,14.19-1.03,20.89,.4c2.32,.5,2.19,1.46,3.9,2.5c1.66,1.01,4.25,1.06,6,2c5.2,2.78,10.05,5.93,15.92,7.44c5.93,1.52,17.47,4.22,23.36,4.49c4.83,.22,10.32-1.28,14.99,.07c4.91,1.42,4.61,8.27,11.34,7.76c7.1-.53,2.78-7.25,8.85-8.71c4.68-1.13,9.95-1.14,14.77-1.71c7.64-.91,16.66-2.38,24.09-4.33c4.53-1.19,9.2-3.86,13.68-5.01c2.01-.51,3.84-.6,5.72-1.63c3.01-1.65,6.97-3.79,9.82-5.62c2.59-1.66,4.54-3.89,7.63-4.66c5.05-1.26,12.2,2.07,17.83,1.91c.34,2.38,.67,4.69,1,7c2.6,.93,4.55,1.41,6.98-.34c2.89-2.08,5.07-8.47,7.4-11.6c2.36-3.18,4.96-6.37,7.86-9.08c2.63-2.47,5.98-4.37,7.75-7.62c.24-.44,1.05-1.91,1.01-2.36c-.36-4.38-4.82-5.33-8.05-3.16c-3.14,2.1-5.87,4.91-8.95,7.16Zm-19-16c-1.2,4.06-3.03,6.45-5,10c-.48,.86-.49,2.18-1,3c-1.15,1.85-3.84,3.15-5,5c-.51,.81-.47,2.22-1,3c-1.22,1.81-4.61,3.85-6.36,5.3C759.97,493.61,732.6,497.08,708,500c.88-5.3,3.43-10.59,5.74-15.43c1.03-2.17,2.76-4.75,3.1-7.13c.39-2.73-.39-4.47-3.03-5.05c-2.46-.53-3.36-.45-4.98,1.6c-3.92,4.94-4.22,12.4-8.83,17.01c.08-5.68-.15-10.41-1-16c-.14-.92,.33-4.47,0-5c-1.61-2.55-6.77-1.53-9-1c-.05,3.97-.28,8.08-.03,12.04c.29,4.48,1.12,8.36,1.03,12.96c-4.41-4.41-6.81-11.94-11.9-15.53c-1.77-1.24-3.01-1.59-5.12-1.1c-2.17,.49-3.46,3.31-2.98,5.63c.25,1.21,2.29,2.98,3,4c.82,1.18,1.24,2.76,2,4c1.86,3.06,4.14,5.86,6,9c-9.2,.11-18.16-.03-27.05-2.84c-1.74-.55-3.27-1.58-4.95-2.16c-1.57-.55-3.2-.46-4.8-1.2c-1.57-.71-2.75-2.1-4.2-2.8c-1.66-.8-3.81-.61-5.62-1.56c-5.07-2.7-9.22-6.57-13.38-10.44c-2.1-1.96-4.38-3.49-6.29-5.68c-13.51-15.44-17.39-37.29-15.95-57.28c.17-2.41,1.73-3.94,2.24-6.04c.44-1.82-.18-4.07,.29-6.05c.35-1.48,1.21-2.58,1.71-3.95c.64-1.73,.58-3.96,1.14-5.81c1.18-3.84,3.25-7.98,4.8-11.75c1.01-2.48,2.77-4.21,4.06-6.44c1.33-2.31,2.92-6.19,3.76-8.74c1.49-4.56,.83-9.38,1.35-14.04c.34-3.01,1.03-7.46,2.01-10.27c.48-1.37,1.46-2.6,1.76-4.02c.37-1.72-.03-3.48,.45-5.23c1.33-4.9,3.3-8.37,5.67-12.7c1.08-1.98,1.36-4.45,2.54-6.52c6.6-11.54,16.19-21.07,27.61-27.97c2.98-1.8,5-3.92,8.56-4.78c3.39-.82,6.9-.31,10.29,.27c4.78-8.16-.26-6.17-5-9c-.76-.46-5.87-5.33-6-6c-.16-.83,.72-3.15,1-4c3.23-.15,7.68-.77,10.73,.19c4.14,1.31,11.81,11.85,13.12,1.07c.31-2.51-1.94-3.21-2.85-5.26c-.88-1.99-1.66-11.12,1-12c.6-.2,2.82,.27,3.53,.39c8.84,1.48,14.79,10.05,18.47,17.49c.73,1.48,2.19,7.39,3,8.12c1.44,1.3,7.97,.71,10.06,1.27c1.43,.38,2.59,1.27,3.94,1.73c2.06,.69,4.63,.54,6.81,1.17c6.04,1.75,12.58,5.31,18.01,8.4c2.56,1.46,3.94,3.78,6.18,5.43c1.21,.89,2.75,1.25,4.01,2.28C770.6,298.66,778.29,310.4,782,318c.76,1.56,2.21,2.66,2.91,4.43c1.71,4.32,2.61,9.17,4.09,13.57c1.18,3.52,2.08,6.36,3,10c.43,1.69,1.69,3.21,2.09,5.09c.7,3.27,.68,6.77,1.2,10.09c1.04,6.67,2.42,13.2,3.71,19.82c-.66,0-1.32,0-2,0c-.2-.59-.65-2.63-1-3c-2.89-3.05-18.34-2.46-22.29-2.04c-1.63,.18-3.39,1.1-5.01,.84c-.63-.1-2.25-.47-2.7-.8c-.87-.64-1.27-4.01-2-5c-1-1.37-3.17-3.32-4.66-4.25c-3.1-1.93-25.93,1.16-28.09,3.94c-2.12,2.73-3.15,8-4.25,11.31c-1.98,0-3.96,0-6,0c0-.87,.31-4.43,0-5c-2.37-4.37-15.51-1.16-19,0c-.35,1.83-.88,6.57-2,8c-.39,.5-2.67,.7-3.4,1.34c-3.2,2.85-4.73,6.91-6.6,10.66c-10.14-2.03-17.95-5.35-27-10c-2.64-1.36-5.36-5.45-8.25-5.83c-4.49-.6-4.86,1.29-5.75,4.83c9.09,7.82,20.1,13.67,31.68,16.8c6.61,1.78,13.02,2.42,19.32,5.2c.77,.34,2.4,.52,3,1c1.86,1.49,2.8,7.87,2,10c-1,2.67-6.54,9.49-8.64,11.66c-4.25,4.39-9.02,7.73-14.6,10.2c-8.75,3.88-17.79,5.62-27.47,4.15c-4.32-.65-5.12-2.3-10.29-2.01c-.27,1.01-1.24,4.06-1,5c1.48,5.82,26.37,5.88,31.06,4.7c4.85-1.22,8.71-3.18,12.94-5.7c2.67-1.59,6.16-2.52,9-4c-.25,7.41,.55,13.74,8.28,17.05c3.5,1.49,7.89,1.24,11.63,1.12c6.48-.22,13.03-1.9,19.47-2.6c3.52-.38,7.15-.18,10.62-.57c10.62-1.2,21.28-2.52,31.88-3.85c5.99-.75,15.19,.13,20.12-3.15Zm-39-73c-8.03-.22-16,2.22-24,2c.33-1.65,.66-3.3,1-5c4.96-1.32,9.91-1.09,15-1c0-.33,0-.66,0-1c1.98,0,3.96,0,6,0c.66,1.65,1.32,3.3,2,5Zm47,1c3.88,1.29,3.86,3.06,6,6c.53,.73,1.43,1.28,2,2c5.37,6.73,8.53,21.48,7.04,29.89c-.36,1.98-1.26,3.33-2.04,5.11c-2.19,4.97-3.86,7.64-10.11,7.9c-1.92,.08-7-4.22-8.45-5.62c-2.83-2.75-3.09-4.81-4.44-8.28c-1.3-3.34-3.36-7.16-2-11c.52-1.48,2.08-2.78,3-4c5.57-7.43,9-12.34,9-22ZM698,398c.56-5.33,2.18-6.69,7.53-7.6c3.19-.55,6.34-.04,9.47-.4c1.8-.21,3.56-.95,5.39-1.18c10.04-1.26,20.15-2.21,30.22-3.21c4.42-.44,9.04-.1,13.39-.61c7.32-.85,14.61-2.55,22.06-3.1c4.06-.3,6.97,2.7,7.75,6.66c.72,3.62-1.26,7.2-4.87,8.19c-1.62,.45-15.73,1.67-16.94,1.25c-1.39-.48-2.64-2.42-4-3c-1.89-.81-4.93-.51-7-1c-1.18-.28-2.41-1.34-3.73-1.71c-3.05-.85-7.02-.7-10.18-.56c-3.23,.16-10.4,2.69-12.64,5.03c-1.55,1.62-2.91,4.09-4.83,5.26c-1.8,1.1-18.57,3.34-20.6,2.74c-1.63-.48-1.89-1.88-3.02-2.76c-2.09-1.63-5.58-2.79-8-4Zm44,42c-12.83-5.99-16.83-21.78-9.62-33.56c2.21-3.62,6.29-5.94,9.62-8.44c.33,.33,.66,.66,1,1c-9.34,9.34-13.34,20.25-6.72,32.36c1.7,3.12,5.72,5.25,5.72,8.64Zm11-41c2.83-.13,6.57-.62,9.32-.14c2.67,.47,3.55,1.87,5.68,3.14c.83,.49,2.22,.47,3,1c3.87,2.63,6.42,10.57,6.97,14.97c.77,6.25-1.97,13-6.93,16.79c-4.51,3.44-13.55,6.08-19.03,4.08c-1.84-.67-2.53-1.78-4.01-2.84c-.75-.54-2.23-.48-3-1c-3.63-2.48-5.56-10.57-5.98-14.66c-.28-2.76-.71-6.48,.44-9.06c.72-1.6,2.09-2.67,3.11-4.05c3.02-4.08,5.44-6.07,10.43-7.23c0-.33,0-.66,0-1Zm25,4c3.8-.86,5.95-2.1,10-2c-6.05,11.72,1.09,21.78,8,31c-4.97,1.59-10.03,.41-15,2c0-9.29,5.6-14.28,1-24c-1.35-2.86-1.67-4.67-4-7Zm-47,36c-5.45,1.46-24.12,3.57-29,2c-.59-7.24,3.93-8.22,7.23-14.23c3.06-5.55,4.02-11.49,3.77-17.77c4.23-1.41,8.61-1.07,13-1c-3.27,7.36-3.13,14.7,0,22c1.58,3.69,1.64,6.25,5,9Zm67-2c.14,4.48,.32,7.01-4.64,8.37c-4.67,1.29-8.7,1.11-13.36,1.63c-4.91,.54-9.93,1.57-14.86,1.95c-5.7,.43-11.47,.39-17.14,1.05c-2.78,.32-5.48,1.26-8.36,1.53c-3.84,.36-7.86,.04-11.64,.47c-6.01,.69-11.42,2.43-17.66,2.34c-5.74-.09-8.64-2.48-6.34-8.34c5.07,.12,9.45-1.05,14.43-1.57c4.02-.43,7.98-.23,12-.47c1.93-.12,3.65-.9,5.64-.8c2.72,.14,4.71,1.47,7.16,2.41c4.24,1.63,8.88,1.69,13.32,1.01c4.55-.7,9.56-2.21,13.68-4.26c1.89-.93,3.18-2.5,5.25-3.24c1.88-.66,3.82-.56,5.77-.81c2.19-.27,4.28-1.06,6.47-1.29c3.31-.37,6.93-.03,10.28,.02ZM614,484c-3.99,.1-8.85,.7-12.73-.18c-1.58-.36-2.84-1.42-4.27-1.82c-2.06-.57-4.21,.23-6.47-.7c-5.15-2.13-11.69-5.27-15.88-8.97c-1.19-1.04-1.56-3.08-2.1-4.52c-2.69-7.19,7.53-6.03,11.45-5.81c.48-.81,1.98-3.13,2-4c.12-5.51-11.68-10.05-8-20c5.12-.17,7.62-.52,12,2c.41,.23,1.76,.7,2,1c.72,.94,3.52,14.64,4.69,17.34c2.51,5.77,5.42,11.52,9.38,16.46c2.57,3.21,5.48,5.84,7.93,9.2Z" fill="#301B12"/>
<path d="M359,242c-3.27-.14-6.9-.5-10.15,.02c-7.92,1.27-10.68,11.29-3.85,15.98c5.05,3.47,11.97-1.28,13.74-6.16c1.03-2.85,.42-6.82,.26-9.84Z" fill="#F5F1F0"/>
<path d="M532,242c-.06,3.48-.39,7.08,.46,10.5c1.53,6.19,6.17,8.34,11.99,5.79c.96-.42,2.96-1.45,3.55-2.29c2.93-4.14-.02-12.43-4.77-13.85c-3.11-.93-7.94-.24-11.23-.15Z" fill="#F6F3F2"/>
<path d="M798,451c-4.93,3.28-14.13,2.4-20.12,3.15c-10.6,1.33-21.26,2.65-31.88,3.85c-3.47,.39-7.1,.19-10.62,.57c-6.44,.7-12.99,2.38-19.47,2.6c-3.74,.12-8.13,.37-11.63-1.12c-7.73-3.31-8.53-9.64-8.28-17.05c-2.84,1.48-6.33,2.41-9,4c-4.23,2.52-8.09,4.48-12.94,5.7c-4.69,1.18-29.58,1.12-31.06-4.7c-.24-.94,.73-3.99,1-5c5.17-.29,5.97,1.36,10.29,2.01c9.68,1.47,18.72-.27,27.47-4.15c5.58-2.47,10.35-5.81,14.6-10.2c2.1-2.17,7.64-8.99,8.64-11.66c.8-2.13-.14-8.51-2-10c-.6-.48-2.23-.66-3-1c-6.3-2.78-12.71-3.42-19.32-5.2c-11.58-3.13-22.59-8.98-31.68-16.8c.89-3.54,1.26-5.43,5.75-4.83c2.89,.38,5.61,4.47,8.25,5.83c9.05,4.65,16.86,7.97,27,10c1.87-3.75,3.4-7.81,6.6-10.66c.73-.64,3.01-.84,3.4-1.34c1.12-1.43,1.65-6.17,2-8c3.49-1.16,16.63-4.37,19,0c.31,.57,0,4.13,0,5c2.04,0,4.02,0,6,0c1.1-3.31,2.13-8.58,4.25-11.31c2.16-2.78,24.99-5.87,28.09-3.94c1.49,.93,3.66,2.88,4.66,4.25c.73,.99,1.13,4.36,2,5c.45,.33,2.07,.7,2.7,.8c1.62,.26,3.38-.66,5.01-.84c3.95-.42,19.4-1.01,22.29,2.04c.35,.37,.8,2.41,1,3c.68,0,1.34,0,2,0c-1.29-6.62-2.67-13.15-3.71-19.82c-.52-3.32-.5-6.82-1.2-10.09c-.4-1.88-1.66-3.4-2.09-5.09c-.92-3.64-1.82-6.48-3-10c-1.48-4.4-2.38-9.25-4.09-13.57c-.7-1.77-2.15-2.87-2.91-4.43c-3.71-7.6-11.4-19.34-17.99-24.72c-1.26-1.03-2.8-1.39-4.01-2.28c-2.24-1.65-3.62-3.97-6.18-5.43c-5.43-3.09-11.97-6.65-18.01-8.4c-2.18-.63-4.75-.48-6.81-1.17c-1.35-.46-2.51-1.35-3.94-1.73c-2.09-.56-8.62,.03-10.06-1.27c-.81-.73-2.27-6.64-3-8.12c-3.68-7.44-9.63-16.01-18.47-17.49c-.71-.12-2.93-.59-3.53-.39c-2.66,.88-1.88,10.01-1,12c.91,2.05,3.16,2.75,2.85,5.26c-1.31,10.78-8.98,.24-13.12-1.07c-3.05-.96-7.5-.34-10.73-.19c-.28,.85-1.16,3.17-1,4c.13,.67,5.24,5.54,6,6c4.74,2.83,9.78,.84,5,9c-3.39-.58-6.9-1.09-10.29-.27c-3.56,.86-5.58,2.98-8.56,4.78c-11.42,6.9-21.01,16.43-27.61,27.97c-1.18,2.07-1.46,4.54-2.54,6.52c-2.37,4.33-4.34,7.8-5.67,12.7c-.48,1.75-.08,3.51-.45,5.23c-.3,1.42-1.28,2.65-1.76,4.02c-.98,2.81-1.67,7.26-2.01,10.27c-.52,4.66,.14,9.48-1.35,14.04c-.84,2.55-2.43,6.43-3.76,8.74c-1.29,2.23-3.05,3.96-4.06,6.44c-1.55,3.77-3.62,7.91-4.8,11.75c-.56,1.85-.5,4.08-1.14,5.81c-.5,1.37-1.36,2.47-1.71,3.95c-.47,1.98,.15,4.23-.29,6.05c-.51,2.1-2.07,3.63-2.24,6.04c-1.44,19.99,2.44,41.84,15.95,57.28c1.91,2.19,4.19,3.72,6.29,5.68c4.16,3.87,8.31,7.74,13.38,10.44c1.81,.95,3.96,.76,5.62,1.56c1.45,.7,2.63,2.09,4.2,2.8c1.6,.74,3.23,.65,4.8,1.2c1.68,.58,3.21,1.61,4.95,2.16c8.89,2.81,17.85,2.95,27.05,2.84c-1.86-3.14-4.14-5.94-6-9c-.76-1.24-1.18-2.82-2-4c-.71-1.02-2.75-2.79-3-4c-.48-2.32,.81-5.14,2.98-5.63c2.11-.49,3.35-.14,5.12,1.1c5.09,3.59,7.49,11.12,11.9,15.53c.09-4.6-.74-8.48-1.03-12.96c-.25-3.96-.02-8.07,.03-12.04c2.23-.53,7.39-1.55,9,1c.33,.53-.14,4.08,0,5c.85,5.59,1.08,10.32,1,16c4.61-4.61,4.91-12.07,8.83-17.01c1.62-2.05,2.52-2.13,4.98-1.6c2.64,.58,3.42,2.32,3.03,5.05c-.34,2.38-2.07,4.96-3.1,7.13c-2.31,4.84-4.86,10.13-5.74,15.43c24.6-2.92,51.97-6.39,71.64-22.7c1.75-1.45,5.14-3.49,6.36-5.3c.53-.78,.49-2.19,1-3c1.16-1.85,3.85-3.15,5-5c.51-.82,.52-2.14,1-3c1.97-3.55,3.8-5.94,5-10ZM756,329c13.32-15.4,23.83,5.61,17.81,13.66c-8.91,11.9-21.39-1.89-17.81-13.66Zm-77.5,5.63c14.24-9.26,23.8,12.43,12.88,19.56c-12.57,8.2-18.9-10.03-12.88-19.56ZM747,354c-2.87,.96-4.4,2.56-7.02,3.75c-7.42,3.39-15.03,2.59-21.98-1.35c-3.06-1.74-4.77-4.72-4.11-8.25c.52-2.84,2.69-4.72,4.58-6.74c2.21-2.37,5.6-5.3,8.73-6.27c6.65-2.05,20.35,4.01,21.74,11.36c.45,2.39-.81,5.46-1.94,7.5Z" fill="#84CEEA"/>
<path d="M1220,292c0,.34,0,.67,0,1c-3.04,.25-6.39,.3-9.3,1.27c-1.28,.43-2.47,1.36-3.7,1.73c-1.93,.59-3.95,.45-5.92,1.24c-1.71,.69-2.63,1.76-4.08,2.76c-5.85,4.04-10.28,7.06-13.59,13.72c-4.12,8.3-2.59,20.09-2.61,29.19c-.04,22.8-.11,45.59-.12,68.39c-.01,6.7-.01,13.41-.04,20.11c-.01,3.3-.52,7.56,.33,10.73c.88,3.22,5.31,8.99,7.83,11.31c1.26,1.16,3.13,2.27,4.2,3.55c1.65,1.97,2.56,4.25,4.48,6.14c1.28,1.26,3.49,2.5,4.52,3.86c2.39,3.17,3.28,5.09,6.54,7.79c1.77,1.47,1.58,2.82,2.89,4.41c1.65,1.99,4.12,3.49,5.96,5.36c3.21,3.25,8.79,11.62,12.61,13.44c1.76,.84,10.29-.02,12-1c.74-.42,1.27-1.55,2-2c.68-.42,2.5-.51,3-1c1.72-1.72,2.37-4.26,4.59-6.16c.84-.73,2.87-1.98,3.41-2.84c.72-1.15,.65-2.38,1.69-3.48c1.84-1.95,4.16-3.46,6.04-5.43c6.97-7.26,13.92-15.27,20.37-23.01c1.4-1.68,3.82-3.31,4.9-5.08c.87-1.43,1.83-4.34,2.47-5.99c2.17-5.61,.76-24.32,.76-31.27c0-19.32-.05-38.64-.06-57.96c-.01-10.75,1.15-23.07-1.46-33.53c-1.54-6.16-7.18-14.9-12.71-18.25c-.84-.51-2.14-.51-3-1c-1.32-.75-2.36-1.93-3.79-2.63c-1.75-.86-3.49-.76-5.21-1.37c-1.9-.67-3.51-1.73-5.53-2.24c-12.54-3.18-26.58-1.83-39.47-1.76Zm-31,46c-.16-8.52-1.73-17.85,3.6-25.17c5.68-7.81,16.55-10.25,25.4-11.83c2.78-.49,5.32-1.78,8.16-2.06c14.44-1.41,41.84,1.24,51.59,12.94c6.19,7.44,5.37,17.08,5.25,26.12c-8.93,.1-19.86-3.23-29.19-4.02c-5.87-.5-12.07-.11-17.97-.11c-15.7,.01-31.59,.12-46.84,4.13Zm94,101c-4.12-1.37-6.48-3.31-10.08-4.74c-3.04-1.22-13.45-2.72-16.61-2.2c-2.03,.33-3.45,1.26-5.31,1.94c-1.54,.57-3.43,.5-5,1c-2.54,.8-4.68,2.71-6.85,4.15c-.99,.66-3.96,2.22-5.15,1.85c-.78-.24-3.28-2.84-4.44-3.49c-5.89-3.32-17.77-7.33-24.56-5.51c-1.37,.37-2.66,1.52-4,2c-1.72,.61-3.45,.5-5.2,1.39c-1.23,.61-2.67,2.21-3.8,2.61c-.61,.21-2.29,0-3,0c0-30.67,0-61.33,0-92c9.83-1.4,19.8-4.02,29.65-4.96c21.15-2.02,43.66,.82,64.35,4.96c0,31,0,62,0,93Zm-89,6c13.8-5.37,17.29-7.55,31.44-1.5c3.83,1.63,6.66,5.49,11.06,5.33c3.81-.14,7.75-4.48,11.45-6.09c4.81-2.11,12.09-3.89,17.32-2.73c2.32,.51,4.12,1.87,6.47,2.32c1.69,.32,4.42,.86,5.26,2.67c1.56,3.34-6.3,10.15-8.15,12.4c-2.63,3.2-10.66,13.07-14.08,14.44c-3.54,1.42-8.09-.71-11.79-.91c-5.47-.29-11.18-.2-16.66-.06c-3.35,.09-6.3,1.83-9.6,.55c-2.14-.82-4.19-2.75-5.72-4.42c-1.71-1.86-16.79-19.4-17-20c-.14-.4,0-1.53,0-2Z" fill="#3C170C"/>
<path d="M141,295c-3.34-.05-6.8-.27-10.12,.03c-1.94,.17-3.78,.88-5.7,.98c-10.34,.55-21.25,.27-30.97,4.62c-1.99,.89-3.41,2.46-5.21,3.37c-1.09,.55-2.21,.62-3.21,1.43c-1.88,1.54-3.16,3.79-4.79,5.57c-1.43,1.56-3.93,3.26-5,5c-.51,.83-.52,2.14-1,3c-2.63,4.68-4.42,8.14-5.95,13.45C67.23,338.83,67.87,346.48,67,353c-1.41,10.51-1.77,21.79-1.03,32.45c.13,1.9,.89,3.76,1.03,5.55c1.31,17.2,1.88,35.13,14.08,48.77c1.78,1.99,3.85,2.73,5.92,4.23c12.56,9.11,23.57,7.96,37.86,9.91c3.98,.55,7.22-1.04,10.94,1.4c1.36,.9,2.94,3.56,4.07,4.9c5.27,6.32,15.92,21.97,22.13,25.79c1.06,.65,3.34,.87,4.58,.89c3.49,.04,7.51-1.3,10.34-3.37c3.84-2.81,17.17-19.91,20.08-24.52c1.09-1.74,1.89-4.18,3.76-5.26c4.13-2.37,11.21-.74,15.96-.89c12.29-.39,26.56-3.31,36.03-11.67c11.5-10.14,13.74-22.77,15.57-37.37c1.02-8.17,1.83-14.71,1.81-23.04c-.04-19.43,.31-46.33-9.73-63.33c-7.54-12.75-20.43-19.1-34.65-21.18c-2.91-.43-5.92,.13-8.75-.26c-1.89-.26-3.49-.97-5.48-1.04c-4.68-.17-9.91,.67-14.52,.04c-18.12-2.48-37.62-1.06-56-1c0,.34,0,.67,0,1Zm-11,8c0-.33,0-.66,0-1c15.43-.04,30.85-.05,46.28-.08c11.69-.02,23.15-.44,34.72,1.08c5.41,.71,11.52-.06,16.88,1.22c1.53,.37,2.7,1.29,4.12,1.78c1.85,.63,3.9,.44,5.83,1.23c1.67,.68,2.69,1.91,4.17,2.77c.85,.49,2.16,.49,3,1c2.75,1.67,6.21,6.23,7.97,8.93c6.79,10.38,7.36,22.44,8.04,34.41c.12,2.17,.9,4.32,1.04,6.57c.4,6.51,.07,13.19,.08,19.71c.02,8.91-.96,16.85-1.87,25.64c-.43,4.1-.58,9.6-1.95,13.44c-.77,2.16-2.22,3.41-3.31,5.3c-3.03,5.25-3.86,7.9-9,12c-8.34,6.66-20.08,6.64-30,8c-1.9,.26-3.54,.89-5.55,.97c-3.56,.13-9.17-1.3-12.32,.26c-2.17,1.09-2.99,3.4-4.44,5.15c-4.43,5.31-8.85,10.64-13.06,16.13c-2.38,3.1-4.94,7.67-8.13,9.97c-1.34,.97-3.24,1.36-4.85,1.39c-1,.02-2.82-.38-3.65-.87c-1.52-.9-3.82-4.51-5-6c-4.2-5.3-8.59-10.44-12.79-15.75c-1.93-2.45-4.34-6.44-6.72-8.24c-5.58-4.2-12.56-1.69-18.95-1.99c-1.96-.09-3.66-.78-5.54-1.02c-2.21-.28-4.5,.09-6.77-.26c-9.34-1.45-17.42-6.49-23.92-13.24c-9.13-9.49-11.96-52.56-11.44-66.2c.08-2.21,.86-4.17,1.13-6.3c.82-6.55,.48-13.51,1.71-20.09c.42-2.24,1.46-3.86,2.29-5.91c.62-1.53,.42-3.87,.86-5.58C79.48,325,80.81,324,82,322c.5-.84,.49-2.17,1-3c.67-1.07,2.32-2.33,3.24-3.28c11.14-11.52,28.65-13,43.76-12.72Z" fill="#3C170D"/>
<path d="M1189,338c15.25-4.01,31.14-4.12,46.84-4.13c5.9,0,12.1-.39,17.97,.11c9.33,.79,20.26,4.12,29.19,4.02c.12-9.04,.94-18.68-5.25-26.12c-9.75-11.7-37.15-14.35-51.59-12.94c-2.84,.28-5.38,1.57-8.16,2.06c-8.85,1.58-19.72,4.02-25.4,11.83c-5.33,7.32-3.76,16.65-3.6,25.17Z" fill="#F48F81"/>
<path d="M130,303c-15.11-.28-32.62,1.2-43.76,12.72c-.92,.95-2.57,2.21-3.24,3.28c-.51,.83-.5,2.16-1,3c-1.19,2-2.52,3-3.14,5.42c-.44,1.71-.24,4.05-.86,5.58c-.83,2.05-1.87,3.67-2.29,5.91c-1.23,6.58-.89,13.54-1.71,20.09c-.27,2.13-1.05,4.09-1.13,6.3c-.52,13.64,2.31,56.71,11.44,66.2c6.5,6.75,14.58,11.79,23.92,13.24c2.27,.35,4.56-.02,6.77,.26c1.88,.24,3.58,.93,5.54,1.02c6.39,.3,13.37-2.21,18.95,1.99c2.38,1.8,4.79,5.79,6.72,8.24c4.2,5.31,8.59,10.45,12.79,15.75c1.18,1.49,3.48,5.1,5,6c.83,.49,2.65,.89,3.65,.87c1.61-.03,3.51-.42,4.85-1.39c3.19-2.3,5.75-6.87,8.13-9.97c4.21-5.49,8.63-10.82,13.06-16.13c1.45-1.75,2.27-4.06,4.44-5.15c3.15-1.56,8.76-.13,12.32-.26c2.01-.08,3.65-.71,5.55-.97c9.92-1.36,21.66-1.34,30-8c5.14-4.1,5.97-6.75,9-12c1.09-1.89,2.54-3.14,3.31-5.3c1.37-3.84,1.52-9.34,1.95-13.44c.91-8.79,1.89-16.73,1.87-25.64c-.01-6.52,.32-13.2-.08-19.71c-.14-2.25-.92-4.4-1.04-6.57c-.68-11.97-1.25-24.03-8.04-34.41c-1.76-2.7-5.22-7.26-7.97-8.93c-.84-.51-2.15-.51-3-1c-1.48-.86-2.5-2.09-4.17-2.77c-1.93-.79-3.98-.6-5.83-1.23c-1.42-.49-2.59-1.41-4.12-1.78c-5.36-1.28-11.47-.51-16.88-1.22c-11.57-1.52-23.03-1.1-34.72-1.08c-15.43,.03-30.85,.04-46.28,.08c0,.34,0,.67,0,1Zm32,62c-3.14,1.05-5.57,3.74-8.71,4.2c-3.54,.51-5.37-.62-7.54-3.32c-1.84-2.28-3.82-6.44-2.89-9.35c1.4-4.35,11.61-11.33,15.27-14.84c2.01-1.92,3.58-4.52,5.67-6.26c.91-.74,2.11-1.07,3.2-1.43c0-.33,0-.66,0-1c3.64-.22,10.28-1.54,12.79,1.7c1.4,1.81,1.96,5.58,2.17,7.82c1.39,15.21,.25,31.58,.27,46.91c0,6.54,1.26,16.08-.58,22.23c-1.24,4.13-4.46,5.12-8.44,5.63c-4.12,.54-10.68,.04-11.35-5.28c-.73-5.83-.26-12.07-.19-17.94c.13-9.69,.18-19.38,.33-29.07Z" fill="#FC8179"/>
<path d="M756,329c-3.58,11.77,8.9,25.56,17.81,13.66c6.02-8.05-4.49-29.06-17.81-13.66Z" fill="#2F1C13"/>
<path d="M162,365c-.15,9.69-.2,19.38-.33,29.07c-.07,5.87-.54,12.11,.19,17.94c.67,5.32,7.23,5.82,11.35,5.28c3.98-.51,7.2-1.5,8.44-5.63c1.84-6.15,.58-15.69,.58-22.23c-.02-15.33,1.12-31.7-.27-46.91c-.21-2.24-.77-6.01-2.17-7.82c-2.51-3.24-9.15-1.92-12.79-1.7c0,.34,0,.67,0,1c-1.09,.36-2.29,.69-3.2,1.43c-2.09,1.74-3.66,4.34-5.67,6.26c-3.66,3.51-13.87,10.49-15.27,14.84c-.93,2.91,1.05,7.07,2.89,9.35c2.17,2.7,4,3.83,7.54,3.32c3.14-.46,5.57-3.15,8.71-4.2Z" fill="#FEF9F8"/>
<path d="M678.5,334.63c-6.02,9.53,.31,27.76,12.88,19.56c10.92-7.13,1.36-28.82-12.88-19.56Z" fill="#2C1A11"/>
<path d="M747,354c1.13-2.04,2.39-5.11,1.94-7.5c-1.39-7.35-15.09-13.41-21.74-11.36c-3.13,.97-6.52,3.9-8.73,6.27c-1.89,2.02-4.06,3.9-4.58,6.74c-.66,3.53,1.05,6.51,4.11,8.25c6.95,3.94,14.56,4.74,21.98,1.35c2.62-1.19,4.15-2.79,7.02-3.75Zm-4-6c-3.08,3.76-7.08,4.85-11.76,5.25c-19.06,1.63-7.04-15.75,3.91-11.57c3.21,1.23,5.54,3.88,7.85,6.32Z" fill="#2F1E14"/>
<path d="M743,348c-2.31-2.44-4.64-5.09-7.85-6.32c-10.95-4.18-22.97,13.2-3.91,11.57c4.68-.4,8.68-1.49,11.76-5.25Z" fill="#F3C769"/>
<path d="M1283,439c0-31,0-62,0-93c-20.69-4.14-43.2-6.98-64.35-4.96c-9.85,.94-19.82,3.56-29.65,4.96c0,30.67,0,61.33,0,92c.71,0,2.39,.21,3,0c1.13-.4,2.57-2,3.8-2.61c1.75-.89,3.48-.78,5.2-1.39c1.34-.48,2.63-1.63,4-2c6.79-1.82,18.67,2.19,24.56,5.51c1.16,.65,3.66,3.25,4.44,3.49c1.19,.37,4.16-1.19,5.15-1.85c2.17-1.44,4.31-3.35,6.85-4.15c1.57-.5,3.46-.43,5-1c1.86-.68,3.28-1.61,5.31-1.94c3.16-.52,13.57,.98,16.61,2.2c3.6,1.43,5.96,3.37,10.08,4.74Zm-79-68c2.09-.19,4.19-.42,6.17,.43c2,.86,3.01,2.16,3.89,4.11c3.42,7.51-5.4,13.13-11.06,10.46c-1.01-.47-2.39-2.84-2.85-3.85c-1.07-2.39-1.53-4.95-.34-7.34c1.04-2.07,2.15-2.13,4.19-2.81c0-.33,0-.66,0-1Zm56,15c-4.94-5.24-4.89-15.11,4.1-15.36c.94-.03,3.08-.03,3.9,.36c4.29,2.03,5.79,10,2.5,13.38c-2.51,2.57-7.36,2.07-10.5,1.62Zm-36-3c5.96,.66,9.54,10.11,16.01,5.15c1.75-1.34,3.39-3.55,4.99-5.15c.52,.17,2.72,.7,3,1c5.45,5.83-13.88,17.93-22.39,6.81c-2.38-3.11-2.84-4.13-1.61-7.81Z" fill="#EE5C53"/>
<path d="M1204,371c0,.34,0,.67,0,1c-2.04,.68-3.15,.74-4.19,2.81c-1.19,2.39-.73,4.95,.34,7.34c.46,1.01,1.84,3.38,2.85,3.85c5.66,2.67,14.48-2.95,11.06-10.46c-.88-1.95-1.89-3.25-3.89-4.11c-1.98-.85-4.08-.62-6.17-.43Z" fill="#420F06"/>
<path d="M1260,386c3.14,.45,7.99,.95,10.5-1.62c3.29-3.38,1.79-11.35-2.5-13.38c-.82-.39-2.96-.39-3.9-.36c-8.99,.25-9.04,10.12-4.1,15.36Z" fill="#421006"/>
<path d="M759,378c-.68-1.7-1.34-3.35-2-5c-2.04,0-4.02,0-6,0c0,.34,0,.67,0,1c-5.09-.09-10.04-.32-15,1c-.34,1.7-.67,3.35-1,5c8,.22,15.97-2.22,24-2Z" fill="#EDE0CE"/>
<path d="M806,379c0,9.66-3.43,14.57-9,22c-.92,1.22-2.48,2.52-3,4c-1.36,3.84,.7,7.66,2,11c1.35,3.47,1.61,5.53,4.44,8.28c1.45,1.4,6.53,5.7,8.45,5.62c6.25-.26,7.92-2.93,10.11-7.9c.78-1.78,1.68-3.13,2.04-5.11c1.49-8.41-1.67-23.16-7.04-29.89c-.57-.72-1.47-1.27-2-2c-2.14-2.94-2.12-4.71-6-6Z" fill="#73BCD7"/>
<path d="M698,398c2.42,1.21,5.91,2.37,8,4c1.13,.88,1.39,2.28,3.02,2.76c2.03,.6,18.8-1.64,20.6-2.74c1.92-1.17,3.28-3.64,4.83-5.26c2.24-2.34,9.41-4.87,12.64-5.03c3.16-.14,7.13-.29,10.18,.56c1.32,.37,2.55,1.43,3.73,1.71c2.07,.49,5.11,.19,7,1c1.36,.58,2.61,2.52,4,3c1.21,.42,15.32-.8,16.94-1.25c3.61-.99,5.59-4.57,4.87-8.19c-.78-3.96-3.69-6.96-7.75-6.66c-7.45,.55-14.74,2.25-22.06,3.1c-4.35,.51-8.97,.17-13.39,.61c-10.07,1-20.18,1.95-30.22,3.21c-1.83,.23-3.59,.97-5.39,1.18c-3.13,.36-6.28-.15-9.47,.4c-5.35,.91-6.97,2.27-7.53,7.6Zm91-4c-4.49-.09-9.9,1.37-14,0c-.03-1.55-.52-5.72,0-7c.69-1.7,11.9-1.03,14-1c0,2.64,0,5.28,0,8Z" fill="#EBE0CE"/>
<path d="M1224,383c-1.23,3.68-.77,4.7,1.61,7.81c8.51,11.12,27.84-.98,22.39-6.81c-.28-.3-2.48-.83-3-1c-1.6,1.6-3.24,3.81-4.99,5.15c-6.47,4.96-10.05-4.49-16.01-5.15Z" fill="#4D1006"/>
<path d="M789,394c0-2.72,0-5.36,0-8c-2.1-.03-13.31-.7-14,1c-.52,1.28-.03,5.45,0,7c4.1,1.37,9.51-.09,14,0Z" fill="#665F54"/>
<path d="M742,440c0-3.39-4.02-5.52-5.72-8.64c-6.62-12.11-2.62-23.02,6.72-32.36c-.34-.34-.67-.67-1-1c-3.33,2.5-7.41,4.82-9.62,8.44c-7.21,11.78-3.21,27.57,9.62,33.56Z" fill="#CFC3B8"/>
<path d="M753,399c0,.34,0,.67,0,1c-4.99,1.16-7.41,3.15-10.43,7.23c-1.02,1.38-2.39,2.45-3.11,4.05c-1.15,2.58-.72,6.3-.44,9.06c.42,4.09,2.35,12.18,5.98,14.66c.77,.52,2.25,.46,3,1c1.48,1.06,2.17,2.17,4.01,2.84c5.48,2,14.52-.64,19.03-4.08c4.96-3.79,7.7-10.54,6.93-16.79c-.55-4.4-3.1-12.34-6.97-14.97c-.78-.53-2.17-.51-3-1c-2.13-1.27-3.01-2.67-5.68-3.14c-2.75-.48-6.49,.01-9.32,.14Zm21,27c-4.19,6.86-14.37,13.23-22.59,9.04c-6.92-3.53-11.66-15.38-8.44-22.54c.76-1.7,2.82-3.31,4.11-4.64c13.71-14.06,30.74,.62,26.92,18.14Z" fill="#E9DBCC"/>
<path d="M778,403c2.33,2.33,2.65,4.14,4,7c4.6,9.72-1,14.71-1,24c4.97-1.59,10.03-.41,15-2c-6.91-9.22-14.05-19.28-8-31c-4.05-.1-6.2,1.14-10,2Z" fill="#674237"/>
<path d="M751,410c9.12-6.44,15.72-2.84,19,7c.25,4.51-.29,7.25-3.42,10.71C756.38,439,738.77,422.23,751,410Zm23,16c3.82-17.52-13.21-32.2-26.92-18.14c-1.29,1.33-3.35,2.94-4.11,4.64c-3.22,7.16,1.52,19.01,8.44,22.54c8.22,4.19,18.4-2.18,22.59-9.04Z" fill="#331B10"/>
<path d="M770,417c-3.28-9.84-9.88-13.44-19-7c1.47,2.93,3.83,3,7,3c.33,1.33,.67,2.67,1,4c1.67,.33,3.33,.67,5,1c-.33,1-.67,2-1,3c-3.17,.5-4.7,.7-7,3c3.95,1.32,2.12,1.15,5,0c.74-.3,2.25,.29,3,0c1.81-.7,4.9-5.34,6-7Z" fill="#6A655E"/>
<path d="M731,439c-3.36-2.75-3.42-5.31-5-9c-3.13-7.3-3.27-14.64,0-22c-4.39-.07-8.77-.41-13,1c.25,6.28-.71,12.22-3.77,17.77c-3.3,6.01-7.82,6.99-7.23,14.23c4.88,1.57,23.55-.54,29-2Z" fill="#653F35"/>
<path d="M770,417c-1.1,1.66-4.19,6.3-6,7c-.75,.29-2.26-.3-3,0c-2.88,1.15-1.05,1.32-5,0c2.3-2.3,3.83-2.5,7-3c.33-1,.67-2,1-3c-1.67-.33-3.33-.67-5-1c-.33-1.33-.67-2.67-1-4c-3.17,0-5.53-.07-7-3c-12.23,12.23,5.38,29,15.58,17.71c3.13-3.46,3.67-6.2,3.42-10.71Z" fill="#413B36"/>
<path d="M798,437c-3.35-.05-6.97-.39-10.28-.02c-2.19,.23-4.28,1.02-6.47,1.29c-1.95,.25-3.89,.15-5.77,.81c-2.07,.74-3.36,2.31-5.25,3.24c-4.12,2.05-9.13,3.56-13.68,4.26c-4.44,.68-9.08,.62-13.32-1.01c-2.45-.94-4.44-2.27-7.16-2.41c-1.99-.1-3.71,.68-5.64,.8c-4.02,.24-7.98,.04-12,.47c-4.98,.52-9.36,1.69-14.43,1.57c-2.3,5.86,.6,8.25,6.34,8.34c6.24,.09,11.65-1.65,17.66-2.34c3.78-.43,7.8-.11,11.64-.47c2.88-.27,5.58-1.21,8.36-1.53c5.67-.66,11.44-.62,17.14-1.05c4.93-.38,9.95-1.41,14.86-1.95c4.66-.52,8.69-.34,13.36-1.63c4.96-1.36,4.78-3.89,4.64-8.37Z" fill="#EFE3CF"/>
<path d="M614,484c-2.45-3.36-5.36-5.99-7.93-9.2c-3.96-4.94-6.87-10.69-9.38-16.46c-1.17-2.7-3.97-16.4-4.69-17.34c-.24-.3-1.59-.77-2-1c-4.38-2.52-6.88-2.17-12-2c-3.68,9.95,8.12,14.49,8,20c-.02,.87-1.52,3.19-2,4c-3.92-.22-14.14-1.38-11.45,5.81c.54,1.44,.91,3.48,2.1,4.52c4.19,3.7,10.73,6.84,15.88,8.97c2.26,.93,4.41,.13,6.47,.7c1.43,.4,2.69,1.46,4.27,1.82c3.88,.88,8.74,.28,12.73,.18Z" fill="#72B8D0"/>
<path d="M1194,445c0,.47-.14,1.6,0,2c.21,.6,15.29,18.14,17,20c1.53,1.67,3.58,3.6,5.72,4.42c3.3,1.28,6.25-.46,9.6-.55c5.48-.14,11.19-.23,16.66,.06c3.7,.2,8.25,2.33,11.79,.91c3.42-1.37,11.45-11.24,14.08-14.44c1.85-2.25,9.71-9.06,8.15-12.4c-.84-1.81-3.57-2.35-5.26-2.67c-2.35-.45-4.15-1.81-6.47-2.32c-5.23-1.16-12.51,.62-17.32,2.73c-3.7,1.61-7.64,5.95-11.45,6.09c-4.4,.16-7.23-3.7-11.06-5.33c-14.15-6.05-17.64-3.87-31.44,1.5Z" fill="#F3CFA7"/>
<path d="M404,657c-3.65,0-6.96-3.57-7.81-6.92c-1.49-5.83,.03-13.78-.15-19.9c-.08-2.49-.93-4.74-1.08-7.16c-.35-5.64,.25-11.38,.08-17.04c-.14-4.29-1.04-8.45-1.04-12.98c35.67,0,71.33,0,107,0c0,5.33,0,10.67,0,16c-.05,4.32-.27,8.75-.01,13.06c.1,1.7,.79,3.27,.81,4.97c.02,1.74-.6,3.28-.8,4.97c-.6,5.07-.05,10.86,0,16c.67,.33,1.33,.67,2,1c-.33,2.33-.67,4.67-1,7c.67,.33,1.33,.67,2,1c4.09-11.74,2.28-21.86,2.93-33.84c.11-2.18,.74-4.06,1.07-6.16c.39-2.51-.16-5.36,.02-7.93c.14-2.09,.8-4.08,.97-6.18c.33-4.23,.06-8.64,.01-12.89c12.73-5.83,13.88-25.75,8-37c-.75-1.44-2.14-2.63-3-4c-.77-1.22-1.17-2.83-2-4c-3.69-5.16-14.96-13.88-20.69-16.61c-1.77-.84-3.53-.82-5.31-1.39c-1.36-.43-2.68-1.43-4-2c-4.2-1.82-9.33-2.78-13.81-3.7c-27.83-5.77-63.33-1.37-82.68,21.41c-4.07,4.81-9.16,13.63-10.4,19.78c-1.41,6.93-.31,16.81,4.22,22.43c4.04,5.02,5.85,3.26,7.06,10.73c1.04,6.41,.34,12.7,.59,19.12c.11,2.96,1.07,5.75,1.08,8.84c.03,7.64-1.6,17.92,.13,25.21c.37,1.6,1.28,2.72,1.81,4.18c.62,1.69,.5,2.94,1.61,4.59c4.53,6.69,11.08,5.55,17.28,9.04c8.62,4.85,13.94,15.98,17.37,24.75c1.34,3.41-.11,6.49,.66,9.77c.67,2.88,3.63,4.59,4.19,8.27c.87,5.77-2.92,18.18,1.7,22.24c1.69,1.48,6.11,2.17,8.19,1.34c1.45-.58,2.67-2.22,4-3c1.71-1,4.23-1.07,6-2c1.34-.71,2.46-2.01,3.82-2.77c3.29-1.82,7.83-1.81,9.18-6.23c1.05-3.42,.14-9.35,0-13c1-.33,2-.67,3-1c.69-4.71,.88-9.9,2.1-14.47c2.19-8.16,8.92-18.22,15.89-23.1c3.61-2.52,9.35-1.77,12.01-4.43c0-1,0-2,0-3c-1.67,.33-3.33,.67-5,1c0-1,0-2,0-3c-20.18,.04-40.36,.08-60.54,.09c-8.28,.01-19.67,1.49-27.46-1.09Zm29-129c0-.33,0-.66,0-1c18.62-.12,33.64-.88,51,7c15.53,7.05,28.17,18.27,28.25,36.57c.02,4.04-.64,8.85-4.25,11.43c-2.69,1.92-8.37,2.78-11.62,3.02c-8.74,.66-17.86,.14-26.63,.15c-17.42,.03-34.83,.04-52.24,.06c-6.48,.01-21.79,1.48-27.15-.98c-6.9-3.16-7.9-11.15-7.68-17.92c.12-3.6,.81-5.18,2.32-8.33c1.24-2.6,1.99-4.98,3.68-7.42c7.52-10.81,22.13-17.35,34.54-20.44c3.87-.96,5.44-2.38,9.78-2.14Zm23,179c0,3.3,0,6.6,0,10c-5.88,1.74-10.14,5.27-16,7c-2.14-2.14-1.03-13.55-1-17c5.67,0,11.33,0,17,0Z" fill="#322016"/>
<path d="M916,572c-2.2,11.29-4.72,22.65-6.43,34.01c-.61,4.06-1.24,7.48-1.39,11.56c-.02,.55,.02,2.01-.18,2.43c-.57,1.21-4.17,2.53-5.37,3.29c-5.44,3.46-12.16,9.16-14.13,15.49C885.06,649.79,893,662.16,902,668c1.42,.92,3.52,1.14,5,2c1.94,1.13,3.42,2.58,5.56,3.5c2.88,1.24,6.49,2.82,9.5,3.6c1.56,.4,3.46,.39,4.94,.9c7.04,2.45,13.39,4.17,21,4c2.58,7.74,3.12,15.87,4.87,23.75c.45,2.06,1.73,3.76,2.18,5.73c1.52,6.79,2.16,14.68,6.86,20.27c.45,.54,1.51,1.97,2.09,2.25c2.63,1.28,9.33-1.26,11.31-3.02c2.59-2.31,1.71-5.13,2.69-7.98c.52-1.51,1.52-2.8,1.97-4.41c.64-2.28,.52-4.74,1.09-7.06c.45-1.81,1.46-3.23,2-4.94c2.06-6.63,4.13-16.73,3.94-23.59c5.4-1.8,10.47-1.76,15.88-2.9c1.9-.41,3.42-1.67,5.12-2.1c12.07-3.06,25.46-7.54,34.07-17.32c1.61-1.83,1.72-3.98,2.93-5.68c4.58-6.45,3.62-12.57,.17-19.58c-2.48-5.06-8.1-10.84-13.17-13.42c-1.33-.67-2.71-.65-3.69-1.99c-1.4-1.9-1.84-9.22-2.31-12.01c-1.47-8.8-2.97-17.58-4.68-26.34c-.32-1.64-1.8-7.31-1.32-8.66c.59-1.67,5.44-4.09,6.96-5.27c1.52-1.18,4.06-3.1,5.04-4.73c.51-.84,.5-2.16,1-3c.75-1.25,1.87-2.11,2.5-3.51c1.8-4.02-.16-9.82-2.08-13.54c-3.29-6.37-7.08-8.07-12.42-11.95c-.68-.49-1.3-1.63-2-2c-1.31-.69-3.62-.34-5-1c-1.72-.82-2.95-2.37-4.87-3.1c-13.2-5.05-40.78-7.83-54.63-5.96c-2.2,.3-3.93,1.7-5.93,2.01c-1.67,.26-3.39-.09-5.05,.18c-10.32,1.69-21.75,5.15-30.53,10.95c-2.11,1.39-6.53,3.95-7.99,5.92c-.53,.71-.56,2.18-1,3c-.76,1.39-2.32,2.55-3,4c-1.44,3.07-.68,5.95,0,9c1.89,8.41,6.49,15.16,15,18Zm-2,54c2.99-14.93,5.5-29.99,8-45c.58-3.46,2.12-7.38,1.9-10.87c-.05-.71-.39-2.65-.9-3.13c-1-.95-3.73-1.39-5-2c-4.12-1.98-9.15-7.85-9.81-12.44c-1.48-10.24,7.88-12.54,14.81-16.56c1.62-.94,2.63-2.22,4.5-2.93c1.96-.74,3.96-.69,5.95-1.18c7.37-1.8,15.53-4.11,23.03-4.95c6.27-.7,13.32-.08,19.67-.07c12.77,.01,32.27,5.04,42.85,12.13c1.95,1.31,4.05,1.95,5.49,3.96c6.31,8.77,2.42,15.94-6.03,21.21c-2.04,1.27-5.45,2.4-6.46,4.83c-1.13,2.72,1.32,12.13,1.82,15.39c1.12,7.31,2.75,14.69,4.03,22c.84,4.78,1.13,14.94,4.03,18.64c1.63,2.08,3.02,1.92,5.12,2.97c6.07,3.04,12.2,9.6,13.1,16.5c1.49,11.46-12.47,18.09-21.1,21.5c-5.08,2.01-9.39,3.4-14.61,4.96c-1.49,.44-2.72,1.39-4.26,1.78c-1.77,.44-3.38,.09-5.13,.26c-5.44,.54-11.19,2.1-16.65,2.84c-7.32,1-17.81,1.05-25.11,.07c-9.17-1.22-17.54-2.96-26.24-5.91c-1.94-.66-4.2-.6-6.22-1.27c-9.51-3.19-21.46-10.1-24.4-20.27c-.95-3.29-1.02-7.44,1.41-10.12c5.21-5.76,8.48-9.76,16.21-12.34Zm66,57c-.94,6.6-1.98,14.24-3.94,20.59c-2.15,6.97-5.07,14.13-6.06,21.41c-.99,0-1.98,0-3,0c-1.95-3.39-1.88-6.49-3-10c-.51-1.61-1.56-2.99-2.02-4.72c-1.47-5.54-1.92-11.63-2.98-17.28c-.62-3.3-2-6.61-2-10c7.67,0,15.33,0,23,0Z" fill="#2F1B13"/>
<path d="M61,712c0,7.46,4.34,7.72,10,10c3.27,1.32,6.8,2.6,10,4c2.11,.92,3.91,1.83,6.2,2.32c2.07,.45,4.27,.83,6.38,.48c6.81-1.11,7.35-6.06,12.17-9.29c2.1-1.41,4.86,.06,7.01-1.02c5.31-2.67,9.74-7.94,15.95-9.41c12.58-2.99,28.64,4.87,39.71,.89c1.89-.68,3.71-1.56,5.39-2.69c7.41-5.01,14.63-16.61,20.5-23.66c11.54-13.84,22.8-27.95,34.16-41.94c3.42-4.22,6.83-8.72,10.53-12.68c.82-.88,2.45-1.99,3-3c.6-1.09,.66-2.31,1.47-3.37c2.66-3.51,6.49-7.34,9.53-10.63c.82-.89,2.44-1.99,3-3c.93-1.7,.92-2.87,2.36-4.39c4.1-4.34,12.09-12.17,14.8-17.13c4.7-8.58,5.3-15.71-.53-24.01c-2.76-3.92-6.35-6.18-9.63-9.47c-1.92-1.93-3.51-4.23-5.46-6.18c-1.74-1.73-3.83-3.1-5.54-4.82c-1.92-1.93-3.51-4.23-5.46-6.18c-1.85-1.84-4.04-3.32-5.83-5.19c-1.91-2-3.32-4.34-5.55-6.05c-2.31-1.76-6.9-3.68-9.82-3.88c-11.9-.8-17.79,7.45-26.21,14.38c-16.79,13.82-33.34,27.43-50.07,41.36c-4.97,4.14-10.33,8.16-15.06,12.56c-1.17,1.09-2.67,3.26-4,4c-.95,.53-2.1,.62-3.07,1.25c-2.42,1.61-4.6,4.37-6.84,6.32c-4.66,4.07-9.61,7.8-14.34,11.8c-1.6,1.34-3.06,3.51-4.75,4.63c-4.44,2.93-8.17,5.7-11.01,10.48c-2.38,4.01-2.65,11.17-.99,15.52c.78,2.04,1.76,3.39,2.07,5.66c.62,4.56,.11,10.12-.77,14.63c-1.16,6.01-3.59,11.61-6.76,16.83c-.84,1.39-3.11,3.37-3.54,4.88c-.73,2.54,.75,3.89-1.31,6.48C73.3,699.28,66.05,704.87,61,712Zm43-87c29.24-24.48,58.83-48.53,88.13-72.94c4.56-3.8,23.79-21.19,27.85-22.21c6.33-1.6,9.11,.98,13.02,5.15c1.61,1.72,3.82,3.07,5.53,4.79c2.4,2.42,4.35,5.28,6.96,7.45c3.65,3.05,6.22,6.46,9.51,9.76c4.92,4.94,14.33,10.9,14.23,18.63c-.03,2.14-.2,3.76-1.27,5.65c-1.65,2.93-4.57,5.42-6.73,8.02c-5.65,6.82-11.3,13.65-16.88,20.53c-8.81,10.85-17.57,21.74-26.47,32.53c-2.63,3.18-5.96,6.04-8.41,9.27c-.81,1.06-.87,2.28-1.47,3.37c-.56,1.02-2.18,2.1-3,3c-2.29,2.5-4.32,5.38-6.5,8c-8.04,9.65-15.5,20.25-24.5,29c-8.04-6.36-14.79-14.76-22-22c-9.03-9.07-18.48-17.79-27.54-26.82c-6.93-6.91-13.42-14.4-20.46-21.18ZM70,713c2.46-2.46,4.44-5.28,6.89-7.74c2.9-2.9,5.79-4.78,8.11-8.26c5.98,4.73,10.56,10.71,16,16c-2.49,2.49-7.64,9.06-12,8c-1.82-.44-3.56-1.85-5.38-2.47c-4.71-1.58-9.2-3.24-13.62-5.53Z" fill="#341F15"/>
<path d="M1172,632c9.36-2.78,30.48-1.1,41.06-1.09c30.98,.01,61.96,.05,92.94,.09c-1-.67-2-1.33-3-2c5.3-1.45,9.48-1.38,11.6,4.64c2.07,5.89-1.41,13.34-1.66,19.55c-.34,8.19-.48,16.93-.05,25.11c.12,2.18,1.11,4.7,1.11,6.7c0,1.28-.8,2.74-1,4c-.89,5.71,0,13.12,0,19c-2.24-7.19-1.1-16.78-1.09-24.32c.01-15.89,.05-31.79,.09-47.68c-.33,0-.67,0-1,0c0,29.33,0,58.67,0,88c-48,0-96,0-144,0c-.06-19.55-.13-39.1-.18-58.65c-.02-8.32-1.14-18.28,.03-26.42c.23-1.59,1.03-2.81,2.15-3.93l3-3Zm-26-109c0,.34,0,.67,0,1c-5.78,2.03-13.05,7.96-14.74,14.14c-1.25,4.56-.52,10.75-.51,15.52c.02,10.24,.02,20.47,.02,30.71c0,37.31,.08,74.62,.08,111.92c.01,7.45-1.01,16.79,2.18,23.67c1.82,3.92,8.05,10.04,12.15,11.48c4.81,1.68,11.8,.83,16.91,.82c10.54-.01,21.07,0,31.61,.01c35.54,.01,71.08,0,106.62,0c12.13,.01,28.96,2.66,39.09-4.94c3.84-2.87,7.59-10.33,7.84-15.15c.62-11.76-.02-23.91-.02-35.71c-.01-24.94-.03-49.88-.06-74.82c-.01-11.28,1.96-34.01-2.18-43.74c-2.75-6.46-7.29-9.2-11.99-13.91c-3.7-3.71-7.31-7.44-11.05-11.13c-2.05-2.03-3.46-4.51-5.79-6.29c-1.53-1.17-4.28-2.39-6.11-3.04c-5.06-1.82-12.94-.77-18.38-.77c-48.55,.04-97.11,.12-145.67,.23Zm34,8c-.08,12.73-.13,25.47-.18,38.2c-.02,5.76-.75,12.51,.06,18.16c.33,2.34,1.93,6.63,3.12,8.64c1.85,3.13,8.46,7.31,12,8c3.71,.72,8.42,.26,12.24,.27c8.64,.02,17.29,.01,25.94-.01c10.87-.02,21.73-.01,32.6,.01c5.44,.01,11.6,.55,16.95-.27c3.05-.47,7.88-2.58,9.85-4.97c2.35-2.86,4.22-6.97,4.92-10.58c1.28-6.56,.6-13.61,.59-20.26c-.01-12.4-.05-24.79-.09-37.19c2.94-.1,8.6-.94,11.18,.32c3.25,1.6,28.29,27.26,29.53,30.66c1.87,5.1,.67,25.05,.66,31.68c-.07,27.83-.03,55.67-.06,83.5c-.01,8.23,1.61,33.78-1.3,39.92c-3.93,8.3-13.34,7.14-21.01,6.92c.09-23.87,.11-47.73,.2-71.6c.02-4.2,1.28-16.46-.63-19.62c-2.75-4.53-7.76-7.24-12.91-7.82c-9.29-1.05-19.5-.26-28.89-.26c-18.82-.01-37.64-.03-56.46-.06c-11.02-.01-22.04-.04-33.06-.02c-4.2,.01-9.69-.68-13.73,.19c-3.03,.66-6.44,3.46-8.32,5.88c-5.12,6.55-3.42,17.95-3.4,25.83c.09,22.49,.11,44.99,.2,67.48c-9.49,.37-18.69,1.3-20.71-10.62c-.83-4.94-.45-10.29-.47-15.3c-.03-8.82-.07-17.64-.09-26.47c-.08-27.81-.21-55.63-.24-83.45c-.01-10.5-.05-21-.07-31.51c-.01-4.63-.53-9.82-.04-14.38c.17-1.6,.95-3.41,1.91-4.69c1.13-1.51,5.07-5.66,6.7-6.37c2.66-1.16,28.2-.24,33.01-.21Zm7,0c34.67,0,69.33,0,104,0c.08,12.12,.15,24.24,.26,36.36c.05,6.17,.59,12.85,.1,18.96c-.12,1.51-.67,3.1-1.51,4.37c-2.32,3.54-4.37,5.44-8.64,6.18c-4.14,.72-8.43,.29-12.61,.33c-8.58,.09-17.16,.12-25.74,.15c-9.93,.03-19.85,.1-29.77,.18c-5.12,.03-10.71,.53-15.77-.03c-2.11-.23-4.68-1.2-6.21-2.72c-2-2.01-3.5-5.73-3.98-8.49c-1.03-5.87-.33-12.81-.31-18.78c.06-12.17,.13-24.34,.18-36.51Z" fill="#2F1E11"/>
<path d="M433,528c-4.34-.24-5.91,1.18-9.78,2.14c-12.41,3.09-27.02,9.63-34.54,20.44c-1.69,2.44-2.44,4.82-3.68,7.42c-1.51,3.15-2.2,4.73-2.32,8.33c-.22,6.77,.78,14.76,7.68,17.92c5.36,2.46,20.67,.99,27.15,.98c17.41-.02,34.82-.03,52.24-.06c8.77-.01,17.89,.51,26.63-.15c3.25-.24,8.93-1.1,11.62-3.02c3.61-2.58,4.27-7.39,4.25-11.43c-.08-18.3-12.72-29.52-28.25-36.57c-17.36-7.88-32.38-7.12-51-7c0,.34,0,.67,0,1Z" fill="#89D2EE"/>
<path d="M914,626c-7.73,2.58-11,6.58-16.21,12.34c-2.43,2.68-2.36,6.83-1.41,10.12c2.94,10.17,14.89,17.08,24.4,20.27c2.02,.67,4.28,.61,6.22,1.27c8.7,2.95,17.07,4.69,26.24,5.91c7.3,.98,17.79,.93,25.11-.07c5.46-.74,11.21-2.3,16.65-2.84c1.75-.17,3.36,.18,5.13-.26c1.54-.39,2.77-1.34,4.26-1.78c5.22-1.56,9.53-2.95,14.61-4.96c8.63-3.41,22.59-10.04,21.1-21.5c-.9-6.9-7.03-13.46-13.1-16.5c-2.1-1.05-3.49-.89-5.12-2.97c-2.9-3.7-3.19-13.86-4.03-18.64c-1.28-7.31-2.91-14.69-4.03-22c-.5-3.26-2.95-12.67-1.82-15.39c1.01-2.43,4.42-3.56,6.46-4.83c8.45-5.27,12.34-12.44,6.03-21.21c-1.44-2.01-3.54-2.65-5.49-3.96c-10.58-7.09-30.08-12.12-42.85-12.13c-6.35-.01-13.4-.63-19.67,.07c-7.5,.84-15.66,3.15-23.03,4.95c-1.99,.49-3.99,.44-5.95,1.18c-1.87,.71-2.88,1.99-4.5,2.93c-6.93,4.02-16.29,6.32-14.81,16.56c.66,4.59,5.69,10.46,9.81,12.44c1.27,.61,4,1.05,5,2c.51,.48,.85,2.42,.9,3.13c.22,3.49-1.32,7.41-1.9,10.87c-2.5,15.01-5.01,30.07-8,45Zm28-31c10.2,7.44,1.85,19.41-7.12,14.7c-6.74-3.54-4.93-16.18,7.12-14.7Zm51,15c-7.97-7.42-1.66-19.27,7.47-14.57c4.98,2.57,6.34,10.96,.78,13.82c-2.24,1.15-5.82,1.06-8.25,.75Zm-37-3c1.19,.13,4.05,.33,5,1c.21,.15,.71,1.68,.88,2c1.46,2.93,4.94,3.19,8.06,2.8c4.86-.62,2.78-2.3,5.06-4.8c.42-.46,3.3-.89,4-1c.62,.96,1.91,2.87,2,4c.55,6.63-14.57,9.91-19,8c-.52-.22-1.53-1.56-2-2c-3.13-2.98-6.27-5.47-4-10Z" fill="#87D2ED"/>
<path d="M104,625c7.04,6.78,13.53,14.27,20.46,21.18c9.06,9.03,18.51,17.75,27.54,26.82c7.21,7.24,13.96,15.64,22,22c9-8.75,16.46-19.35,24.5-29c2.18-2.62,4.21-5.5,6.5-8c.82-.9,2.44-1.98,3-3c.6-1.09,.66-2.31,1.47-3.37c2.45-3.23,5.78-6.09,8.41-9.27c8.9-10.79,17.66-21.68,26.47-32.53c5.58-6.88,11.23-13.71,16.88-20.53c2.16-2.6,5.08-5.09,6.73-8.02c1.07-1.89,1.24-3.51,1.27-5.65c.1-7.73-9.31-13.69-14.23-18.63c-3.29-3.3-5.86-6.71-9.51-9.76c-2.61-2.17-4.56-5.03-6.96-7.45c-1.71-1.72-3.92-3.07-5.53-4.79c-3.91-4.17-6.69-6.75-13.02-5.15c-4.06,1.02-23.29,18.41-27.85,22.21C162.83,576.47,133.24,600.52,104,625Z" fill="#F7EA81"/>
<path d="M1180,531c-4.81-.03-30.35-.95-33.01,.21c-1.63,.71-5.57,4.86-6.7,6.37c-.96,1.28-1.74,3.09-1.91,4.69c-.49,4.56,.03,9.75,.04,14.38c.02,10.51,.06,21.01,.07,31.51c.03,27.82,.16,55.64,.24,83.45c.02,8.83,.06,17.65,.09,26.47c.02,5.01-.36,10.36,.47,15.3c2.02,11.92,11.22,10.99,20.71,10.62c-.09-22.49-.11-44.99-.2-67.48c-.02-7.88-1.72-19.28,3.4-25.83c1.88-2.42,5.29-5.22,8.32-5.88c4.04-.87,9.53-.18,13.73-.19c11.02-.02,22.04,.01,33.06,.02c18.82,.03,37.64,.05,56.46,.06c9.39,0,19.6-.79,28.89,.26c5.15,.58,10.16,3.29,12.91,7.82c1.91,3.16,.65,15.42,.63,19.62c-.09,23.87-.11,47.73-.2,71.6c7.67,.22,17.08,1.38,21.01-6.92c2.91-6.14,1.29-31.69,1.3-39.92c.03-27.83-.01-55.67,.06-83.5c.01-6.63,1.21-26.58-.66-31.68c-1.24-3.4-26.28-29.06-29.53-30.66c-2.58-1.26-8.24-.42-11.18-.32c.04,12.4,.08,24.79,.09,37.19c.01,6.65,.69,13.7-.59,20.26c-.7,3.61-2.57,7.72-4.92,10.58c-1.97,2.39-6.8,4.5-9.85,4.97c-5.35,.82-11.51,.28-16.95,.27c-10.87-.02-21.73-.03-32.6-.01c-8.65,.02-17.3,.03-25.94,.01c-3.82-.01-8.53,.45-12.24-.27c-3.54-.69-10.15-4.87-12-8c-1.19-2.01-2.79-6.3-3.12-8.64c-.81-5.65-.08-12.4-.06-18.16c.05-12.73,.1-25.47,.18-38.2Z" fill="#9AE5B3"/>
<path d="M1187,531c-.05,12.17-.12,24.34-.18,36.51c-.02,5.97-.72,12.91,.31,18.78c.48,2.76,1.98,6.48,3.98,8.49c1.53,1.52,4.1,2.49,6.21,2.72c5.06,.56,10.65,.06,15.77,.03c9.92-.08,19.84-.15,29.77-.18c8.58-.03,17.16-.06,25.74-.15c4.18-.04,8.47,.39,12.61-.33c4.27-.74,6.32-2.64,8.64-6.18c.84-1.27,1.39-2.86,1.51-4.37c.49-6.11-.05-12.79-.1-18.96c-.11-12.12-.18-24.24-.26-36.36c-34.67,0-69.33,0-104,0Zm90.29,57.02c-4.05,1.74-22.89,2.81-26.04-.23c-1.33-1.29-2.02-4.47-2.26-6.24c-.85-6.18-.24-13.1-.31-19.37c-.06-5.42-.9-12.11,.15-17.37c.43-2.18,1.28-4.09,3.29-5.15c3.81-2.01,9.45-1.08,13.67-1.11c2.82-.02,8.71-.71,10.96,1.66c4.31,4.58,2.5,21.9,2.59,28.26c.09,5.73,1.72,15.1-2.05,19.55Z" fill="#D1F3DB"/>
<path d="M1277.29,588.02c3.77-4.45,2.14-13.82,2.05-19.55c-.09-6.36,1.72-23.68-2.59-28.26c-2.25-2.37-8.14-1.68-10.96-1.66c-4.22,.03-9.86-.9-13.67,1.11c-2.01,1.06-2.86,2.97-3.29,5.15c-1.05,5.26-.21,11.95-.15,17.37c.07,6.27-.54,13.19,.31,19.37c.24,1.77,.93,4.95,2.26,6.24c3.15,3.04,21.99,1.97,26.04,.23ZM1256,583c0-12.33,0-24.67,0-37c5.33,0,10.67,0,16,0c0,12.33,0,24.67,0,37c-5.33,0-10.67,0-16,0Z" fill="#2D1F0F"/>
<path d="M1256,583c5.33,0,10.67,0,16,0c0-12.33,0-24.67,0-37c-5.33,0-10.67,0-16,0c0,12.33,0,24.67,0,37Z" fill="#9FE2B2"/>
<path d="M501,609c0-5.33,0-10.67,0-16c-35.67,0-71.33,0-107,0c0,4.53,.9,8.69,1.04,12.98c.17,5.66-.43,11.4-.08,17.04c.15,2.42,1,4.67,1.08,7.16c.18,6.12-1.34,14.07,.15,19.9c.85,3.35,4.16,6.92,7.81,6.92c19.5,.12,38.99,.19,58.49,.27c8.72,.03,19.07,1.18,27.6-.23c2.87-.47,6.31-1.77,7.79-4.4c2.52-4.46,.47-9.87,1.12-14.64c.29-2.15,1.05-4.08,1.1-6.32c.17-7.39-1.19-15.52,.9-22.68Zm-75,14c-5.33,5.02-13.06,4.69-14.92-3.3c-.27-1.18-.53-3.57-.08-4.7c2.37-5.9,12.57-5.72,15,0c.9,2.13,.32,5.78,0,8Zm44-10.87c2.33-1.31,7.48-2.44,10-1.13c3.79,1.97,6.05,9.6,2.81,12.81c-.99,.99-3.4,1.67-4.76,1.9c-8.81,1.47-11.69-6.76-8.05-13.58ZM455,623c1.65,.33,3.3,.66,5,1c.18,1.29,.52,3.8,0,5c-1.29,2.99-8.56,5.6-11.52,6.06c-5.57,.89-15.36-5.14-13.48-11.06c.36-1.15,1.52-.91,2.37-.76c5.61,1.05,2.16,.97,4.63,3.76c.46,.52,2.34,1.15,3.04,1.38c5.48,1.76,7.72-.79,9.96-5.38Z" fill="#F6E883"/>
<path d="M942,595c-12.05-1.48-13.86,11.16-7.12,14.7c8.97,4.71,17.32-7.26,7.12-14.7Z" fill="#291C16"/>
<path d="M993,610c2.43,.31,6.01,.4,8.25-.75c5.56-2.86,4.2-11.25-.78-13.82c-9.13-4.7-15.44,7.15-7.47,14.57Z" fill="#2B1D16"/>
<path d="M956,607c-2.27,4.53,.87,7.02,4,10c.47,.44,1.48,1.78,2,2c4.43,1.91,19.55-1.37,19-8c-.09-1.13-1.38-3.04-2-4c-.7,.11-3.58,.54-4,1c-2.28,2.5-.2,4.18-5.06,4.8c-3.12,.39-6.6,.13-8.06-2.8c-.17-.32-.67-1.85-.88-2c-.95-.67-3.81-.87-5-1Z" fill="#231F1C"/>
<path d="M504,657c-.67-.33-1.33-.67-2-1c.33-2.33,.67-4.67,1-7c-.67-.33-1.33-.67-2-1c-.05-5.14-.6-10.93,0-16c.2-1.69,.82-3.23,.8-4.97c-.02-1.7-.71-3.27-.81-4.97c-.26-4.31-.04-8.74,.01-13.06c-2.09,7.16-.73,15.29-.9,22.68c-.05,2.24-.81,4.17-1.1,6.32c-.65,4.77,1.4,10.18-1.12,14.64c-1.48,2.63-4.92,3.93-7.79,4.4c-8.53,1.41-18.88,.26-27.6,.23c-19.5-.08-38.99-.15-58.49-.27c7.79,2.58,19.18,1.1,27.46,1.09c20.18-.01,40.36-.05,60.54-.09c0,1,0,2,0,3c1.67-.33,3.33-.67,5-1c0,1,0,2,0,3c3.21,0,5.05-3.53,7-6Z" fill="#5A4321"/>
<path d="M426,623c.32-2.22,.9-5.87,0-8c-2.43-5.72-12.63-5.9-15,0c-.45,1.13-.19,3.52,.08,4.7c1.86,7.99,9.59,8.32,14.92,3.3Z" fill="#331A06"/>
<path d="M470,612.13c-3.64,6.82-.76,15.05,8.05,13.58c1.36-.23,3.77-.91,4.76-1.9c3.24-3.21,.98-10.84-2.81-12.81c-2.52-1.31-7.67-.18-10,1.13Z" fill="#341A06"/>
<path d="M455,623c-2.24,4.59-4.48,7.14-9.96,5.38c-.7-.23-2.58-.86-3.04-1.38c-2.47-2.79,.98-2.71-4.63-3.76c-.85-.15-2.01-.39-2.37,.76c-1.88,5.92,7.91,11.95,13.48,11.06c2.96-.46,10.23-3.07,11.52-6.06c.52-1.2,.18-3.71,0-5c-1.7-.34-3.35-.67-5-1Z" fill="#321A04"/>
<path d="M1311,636c.33,0,.67,0,1,0c-.04,15.89-.08,31.79-.09,47.68c-.01,7.54-1.15,17.13,1.09,24.32c0-5.88-.89-13.29,0-19c.2-1.26,1-2.72,1-4c0-2-.99-4.52-1.11-6.7c-.43-8.18-.29-16.92,.05-25.11c.25-6.21,3.73-13.66,1.66-19.55c-2.12-6.02-6.3-6.09-11.6-4.64c1,.67,2,1.33,3,2c-30.98-.04-61.96-.08-92.94-.09c-10.58-.01-31.7-1.69-41.06,1.09c41.86-.17,83.73-.01,125.59-.37c3.41-.03,12.41-.91,12.41,4.37l1,0Z" fill="#564139"/>
<path d="M1310,636c0-5.28-9-4.4-12.41-4.37c-41.86,.36-83.73,.2-125.59,.37l-3,3c0,26.83,0,53.67,0,80.5c0,2.1-.27,6.25,2,7.5c2,1.11,24.84,.32,28.83,.3c36.05-.15,72.11-.16,108.17-.3c.87-4.1,1.4-8.81,1-13c-.17-1.84-.76-3.56-.79-5.45c-.02-1.68,.59-2.97,.79-4.55c.3-2.39-.6-4.57-.74-6.9c-.13-2.14,.78-4.14,.74-6.1c-.03-1.33-.8-2.71-1-4c-.78-5.11,1.68-10.4,2.01-15.43c.69-10.36,.05-21.17-.01-31.57Z" fill="#FEFEFE"/>
<path d="M1310,636c.06,10.4,.7,21.21,.01,31.57c-.33,5.03-2.79,10.32-2.01,15.43c.2,1.29,.97,2.67,1,4c.04,1.96-.87,3.96-.74,6.1c.14,2.33,1.04,4.51,.74,6.9c-.2,1.58-.81,2.87-.79,4.55c.03,1.89,.62,3.61,.79,5.45c.4,4.19-.13,8.9-1,13c-36.06,.14-72.12,.15-108.17,.3c-3.99,.02-26.83,.81-28.83-.3c-2.27-1.25-2-5.4-2-7.5c0-26.83,0-53.67,0-80.5c-1.12,1.12-1.92,2.34-2.15,3.93c-1.17,8.14-.05,18.1-.03,26.42c.05,19.55,.12,39.1,.18,58.65c48,0,96,0,144,0c0-29.33,0-58.67,0-88l-1,0Z" fill="#E8E1DE"/>
<path d="M980,683c-7.67,0-15.33,0-23,0c0,3.39,1.38,6.7,2,10c1.06,5.65,1.51,11.74,2.98,17.28c.46,1.73,1.51,3.11,2.02,4.72c1.12,3.51,1.05,6.61,3,10c1.02,0,2.01,0,3,0c.99-7.28,3.91-14.44,6.06-21.41c1.96-6.35,3-13.99,3.94-20.59Z" fill="#D0E0E1"/>
<path d="M70,713c4.42,2.29,8.91,3.95,13.62,5.53c1.82,.62,3.56,2.03,5.38,2.47c4.36,1.06,9.51-5.51,12-8c-5.44-5.29-10.02-11.27-16-16c-2.32,3.48-5.21,5.36-8.11,8.26c-2.45,2.46-4.43,5.28-6.89,7.74Z" fill="#F5E482"/>
<path d="M456,707c-5.67,0-11.33,0-17,0c-.03,3.45-1.14,14.86,1,17c5.86-1.73,10.12-5.26,16-7c0-3.4,0-6.7,0-10Z" fill="#91D0E7"/>
</svg>
